<?xml version="1.0" encoding="UTF-8"?><svg id="Layer_1" xmlns="http://www.w3.org/2000/svg" viewBox="0 0 300 300"><polygon points="299.95 142.17 189.48 142.17 291.55 99.89 285.53 85.37 183.46 127.65 261.58 49.53 250.47 38.42 172.35 116.55 214.63 14.47 200.11 8.46 157.83 110.54 157.83 .05 142.12 .05 142.12 110.53 99.84 8.46 85.33 14.47 127.61 116.55 49.48 38.42 38.37 49.53 116.5 127.65 14.42 85.37 8.41 99.89 110.47 142.17 0 142.17 0 157.88 110.49 157.88 8.41 200.16 14.42 214.68 116.5 172.4 38.37 250.52 49.48 261.63 127.61 183.5 85.33 285.58 99.84 291.59 142.12 189.52 142.12 300 157.83 300 157.83 189.51 200.11 291.59 214.63 285.58 172.35 183.5 250.47 261.63 261.58 250.52 183.46 172.4 285.53 214.68 291.55 200.16 189.46 157.88 299.95 157.88 299.95 142.17"/></svg>