<?xml version="1.0" encoding="UTF-8"?><svg id="Layer_1" xmlns="http://www.w3.org/2000/svg" viewBox="0 0 300 300"><path d="M263.79,164.85c-8.58-4.95-29.8-8.77-51.95-11.55-3.88-.49-3.88-6.12,0-6.61,22.14-2.78,43.36-6.6,51.95-11.55,21.06-12.16,28.28-39.09,16.12-60.15-12.16-21.06-39.09-28.28-60.15-16.12-8.58,4.95-22.49,21.42-35.97,39.21-2.36,3.12-7.24.3-5.72-3.3,8.66-20.57,15.97-40.85,15.97-50.76,0-24.32-19.71-44.03-44.03-44.03s-44.03,19.71-44.03,44.03c0,9.91,7.31,30.19,15.97,50.76,1.52,3.6-3.36,6.42-5.72,3.3-13.48-17.78-27.39-34.25-35.97-39.21-21.06-12.16-47.99-4.94-60.15,16.12-12.16,21.06-4.94,47.99,16.12,60.15,8.58,4.95,29.8,8.77,51.95,11.55,3.88.49,3.88,6.12,0,6.61-22.14,2.78-43.36,6.6-51.95,11.55-21.06,12.16-28.28,39.09-16.12,60.15,12.16,21.06,39.09,28.27,60.15,16.12,8.58-4.95,22.49-21.42,35.97-39.21,2.36-3.12,7.24-.3,5.72,3.3-8.66,20.57-15.97,40.85-15.97,50.76,0,24.32,19.71,44.03,44.03,44.03s44.03-19.71,44.03-44.03c0-9.91-7.31-30.19-15.97-50.76-1.52-3.6,3.36-6.42,5.72-3.3,13.48,17.78,27.39,34.25,35.97,39.21,21.06,12.16,47.99,4.94,60.15-16.12,12.16-21.06,4.94-47.99-16.12-60.15Z"/></svg>