<?xml version="1.0" encoding="UTF-8"?>
<svg id="Layer_2" data-name="Layer 2" xmlns="http://www.w3.org/2000/svg" viewBox="0 0 79.59 79.59">
  <defs>
    <style>
      .cls-1 {
        fill: #2a2a2a;
      }

      .cls-2 {
        fill: #9aeb00;
        stroke: #2a2a2a;
        stroke-miterlimit: 10;
        stroke-width: 2px;
      }
    </style>
  </defs>
  <g id="Layer_1-2" data-name="Layer 1">
    <g>
      <circle class="cls-2" cx="39.79" cy="39.79" r="38.79"/>
      <g>
        <path class="cls-1" d="M38.63,18.5c1.26,5.37,5.24,18.85,16.7,21.3-9.34,2.26-14.3,13.36-15.27,21.31-1.5-8.92-7.99-19.85-15.84-20.95,6.99-1.67,13.3-11.29,14.41-21.66Z"/>
        <path class="cls-1" d="M40.08,62.03c-.46,0-.85-.32-.92-.77-1.51-8.94-7.91-19.19-15.05-20.19-.44-.06-.77-.43-.8-.87-.02-.44.28-.84.71-.94,6.5-1.55,12.64-10.9,13.7-20.85.05-.45.41-.8.86-.83.44-.03.85.27.96.71,1.59,6.76,5.79,18.42,16,20.6.42.09.73.46.73.89s-.29.81-.71.91c-9.13,2.21-13.71,13.48-14.57,20.53-.06.46-.44.8-.9.81h0ZM27.16,40.02c5.78,2.43,10.56,9.53,12.8,16.72,1.81-6.95,6-13.98,12.39-16.89-7.49-3-11.46-10.8-13.51-17.14-1.85,7.81-6.41,14.57-11.69,17.31Z"/>
      </g>
    </g>
  </g>
</svg>