<?xml version="1.0" encoding="UTF-8"?><svg id="Layer_1" xmlns="http://www.w3.org/2000/svg" viewBox="0 0 300 300"><path d="M149.94.11C67.27.11,0,67.38,0,150.06s67.27,149.94,149.94,149.94,149.94-67.27,149.94-149.94S232.62.11,149.94.11ZM143.64,89.51c-16.04-.79-31.62-4.58-46.01-11.01,10.61-22.68,26.23-43.03,46.01-59.28v70.3ZM143.64,102.11v41.65h-61.72c.62-18.52,4.28-36.64,10.75-53.68,15.94,7.1,33.19,11.24,50.96,12.03ZM143.64,156.36v41.66c-17.6.79-34.69,4.86-50.5,11.83-6.59-16.94-10.44-34.99-11.22-53.5h61.72ZM143.64,210.62v68.81c-19.45-15.96-34.9-35.83-45.49-58.01,14.25-6.3,29.64-10.02,45.49-10.79ZM156.24,210.62c15.85.78,31.24,4.49,45.49,10.79-10.59,22.18-26.04,42.05-45.49,58.02v-68.8ZM156.24,198.02v-41.66h61.72c-.78,18.51-4.63,36.55-11.22,53.49-15.81-6.97-32.9-11.04-50.5-11.83ZM156.24,143.76v-41.65c17.77-.79,35.02-4.93,50.96-12.03,6.47,17.04,10.13,35.16,10.75,53.67h-61.71ZM156.24,89.51V19.22c19.78,16.25,35.4,36.6,46.01,59.28-14.39,6.44-29.96,10.22-46.01,11.01ZM169.73,14.16c28.16,4.08,53.56,16.73,73.5,35.22-8.78,9.31-18.8,17.15-29.71,23.38-10.39-22.08-25.23-42.08-43.79-58.6ZM86.36,72.75c-10.9-6.23-20.92-14.07-29.7-23.38,19.93-18.48,45.34-31.13,73.49-35.21-18.56,16.52-33.4,36.52-43.79,58.59ZM81.37,84.4c-7.3,18.8-11.49,38.85-12.13,59.36H12.76c1.49-32.74,14.49-62.53,35.04-85.4,9.9,10.44,21.24,19.16,33.57,26.04ZM69.31,156.36c.81,20.48,5.11,40.44,12.51,59.12-12.5,6.92-23.99,15.73-34.01,26.29-20.56-22.88-33.57-52.66-35.05-85.41h56.55ZM86.89,227.08c10.73,22.38,26.07,42.57,45.25,59.13-28.94-3.77-55.07-16.55-75.47-35.46,8.91-9.46,19.12-17.39,30.22-23.67ZM213,227.07c11.1,6.28,21.31,14.21,30.23,23.67-20.4,18.92-46.54,31.7-75.48,35.46,19.19-16.56,34.52-36.75,45.26-59.14ZM218.06,215.47c7.4-18.68,11.7-38.64,12.51-59.11h56.56c-1.49,32.74-14.49,62.53-35.05,85.4-10.02-10.56-21.52-19.37-34.02-26.29ZM230.64,143.76c-.64-20.51-4.83-40.55-12.12-59.35,12.33-6.88,23.67-15.61,33.57-26.04,20.55,22.87,33.55,52.66,35.04,85.39h-56.49Z"/></svg>