<?xml version="1.0" encoding="UTF-8"?>
<svg id="Layer_2" data-name="Layer 2" xmlns="http://www.w3.org/2000/svg" viewBox="0 0 86.91 86.91">
  <defs>
    <style>
      .cls-1 {
        fill: #9067f3;
        stroke: #2a2a2a;
        stroke-miterlimit: 10;
        stroke-width: 2px;
      }
    </style>
  </defs>
  <g id="Layer_1-2" data-name="Layer 1">
    <path class="cls-1" d="M85.91,43.45c0-5.69-4.62-10.31-10.31-10.31-1.85,0-5.88.49-10.49,1.34,3.86-2.65,7.05-5.16,8.36-6.47,4.03-4.03,4.03-10.55,0-14.58s-10.55-4.03-14.58,0c-1.31,1.31-3.81,4.5-6.47,8.36.85-4.61,1.34-8.64,1.34-10.49,0-5.69-4.62-10.31-10.31-10.31-5.69,0-10.31,4.62-10.31,10.31,0,1.85.49,5.88,1.34,10.49-2.65-3.86-5.16-7.05-6.47-8.36-4.03-4.03-10.55-4.03-14.58,0s-4.03,10.55,0,14.58c1.31,1.31,4.5,3.81,8.36,6.47-4.61-.85-8.64-1.34-10.49-1.34-5.69,0-10.31,4.62-10.31,10.31,0,5.69,4.62,10.31,10.31,10.31,1.85,0,5.88-.49,10.49-1.34-3.86,2.65-7.05,5.16-8.36,6.47-4.03,4.03-4.03,10.55,0,14.58,4.03,4.03,10.55,4.03,14.58,0,1.31-1.31,3.81-4.5,6.47-8.36-.85,4.61-1.34,8.64-1.34,10.49,0,5.69,4.62,10.31,10.31,10.31,5.69,0,10.31-4.62,10.31-10.31,0-1.85-.49-5.88-1.34-10.49,2.65,3.86,5.16,7.05,6.47,8.36,4.03,4.03,10.55,4.03,14.58,0s4.03-10.55,0-14.58c-1.31-1.31-4.5-3.81-8.36-6.47,4.61.85,8.64,1.34,10.49,1.34,5.69,0,10.31-4.62,10.31-10.31Z"/>
  </g>
</svg>