<?xml version="1.0" encoding="UTF-8"?>
<svg id="Layer_2" xmlns="http://www.w3.org/2000/svg" version="1.1" viewBox="0 0 288.6 114.1">
  <!-- Generator: Adobe Illustrator 30.6.0, SVG Export Plug-In . SVG Version: 2.1.4 Build 109)  -->
  <defs>
    <style>
      .st0 {
        fill: #111;
      }

      .st1 {
        isolation: isolate;
      }

      .st2 {
        fill: #f98de2;
        stroke: #000;
        stroke-miterlimit: 10;
        stroke-width: 2px;
      }
    </style>
  </defs>
  <ellipse class="st2" cx="144.3" cy="57" rx="143.3" ry="56"/>
  <g class="st1">
    <path class="st0" d="M100.1,29.9c-.1,7.3-.2,15-.2,26.1s0,18.6.2,26.1h-14.3c0-5.2.1-12.7.2-18.9h-6.3c0,6.3,0,13.8.2,18.9h-14.3c.2-7.5.2-15,.2-26.1s0-18.8-.2-26.1h14.3c-.1,5.1-.2,12.7-.2,19.1,1,0,2.1,0,3.1,0s2.2,0,3.1,0c0-6.3-.1-14-.2-19.1h14.3Z"/>
    <path class="st0" d="M133.2,65.6c.4,11.7-2,17.2-14.6,17.2s-15.5-5.2-15.5-22.5,4.9-23.9,16-23.9,14.3,4.9,14.3,16.3-.1,8.1-.3,10c-3.8-.1-8-.1-11.4-.1h-5.7c0,7.9.8,9.6,3,9.6s2.4-1.4,2.4-6.5c1.3,0,3.2.1,5.3.1s4.7,0,6.5-.1ZM116.1,56.4h5.6c0-1.2,0-2.2,0-3.5,0-5.2-.7-6.6-2.6-6.6s-2.8,1.5-3.1,10.1Z"/>
    <path class="st0" d="M136.7,82.1c.2-8.3.1-19.1.1-28.4s0-18.1-.1-25.5h13.8c-.1,7.6-.1,15.6-.1,26.9s0,19.1,0,27h-13.7Z"/>
    <path class="st0" d="M154.3,82.1c.2-8.3.1-19.1.1-28.4s0-18.1-.1-25.5h13.8c-.1,7.6-.1,15.6-.1,26.9s0,19.1,0,27h-13.7Z"/>
    <path class="st0" d="M187.3,82.8c-11.8,0-16.4-6.1-16.4-24.3s5.2-22.1,16.4-22.1,16.6,4.2,16.6,22.1-4.7,24.3-16.6,24.3ZM187.4,47.9c-2.1,0-3.1,1.4-3.1,10.7s1,11.3,3.1,11.3,3.1-1.7,3.1-11.3-1-10.7-3.1-10.7Z"/>
    <path class="st0" d="M222.1,75.6c0,4.9-2.6,7.1-7.9,7.1s-7.8-2.2-7.8-7.1,2.6-7,7.8-7,7.9,2.2,7.9,7ZM207.6,59.1c0-11.3-.5-24.5-.9-29.2,2.7,0,5.4,0,7.5,0s4.9,0,7.6,0c-.3,4.9-1,18-1,29.2s0,5.5,0,7.3c-2.6,0-4.8,0-6.7,0s-4.2,0-6.7,0c0-1.8,0-4.2,0-7.3Z"/>
  </g>
</svg>