<?xml version="1.0" encoding="UTF-8"?><svg id="Layer_1" xmlns="http://www.w3.org/2000/svg" viewBox="0 0 300 300"><path d="M150.09-.18C67.2-.18,0,67.02,0,149.91s67.2,150.09,150.09,150.09,150.09-67.2,150.09-150.09S232.98-.18,150.09-.18ZM175.6,85.81c5.22,0,9.45,14.38,9.45,32.13s-4.23,32.13-9.45,32.13-9.45-14.38-9.45-32.13,4.23-32.13,9.45-32.13ZM124.58,85.81c5.22,0,9.45,14.38,9.45,32.13s-4.23,32.13-9.45,32.13-9.45-14.38-9.45-32.13,4.23-32.13,9.45-32.13ZM238.72,154.92c-10.67,40.07-47.12,68.06-88.63,68.06s-77.95-27.99-88.63-68.06c-.42-1.57-.2-3.22.62-4.63.82-1.41,2.13-2.42,3.7-2.84,3.22-.89,6.64,1.15,7.47,4.33,9.26,34.73,40.86,58.98,76.84,58.98s67.57-24.26,76.84-58.99c.84-3.14,4.07-5.06,7.32-4.37.05.01.11.02.16.04,3.25.88,5.18,4.24,4.31,7.48Z"/></svg>