<?xml version="1.0" encoding="UTF-8"?><svg id="Layer_1" xmlns="http://www.w3.org/2000/svg" xmlns:xlink="http://www.w3.org/1999/xlink" viewBox="0 0 1080 1080"><defs><style>.cls-1{fill:none;stroke:#000;stroke-miterlimit:10;stroke-width:5px;}.cls-2{clip-path:url(#clippath);}</style><clipPath id="clippath"><path class="cls-1" d="M0,47.14v985.72c0,26.04,21.11,47.14,47.14,47.14h708.86c59.65,0,108-48.35,108-108h0c0-59.65,48.35-108,108-108h0c59.65,0,108-48.35,108-108V47.14c0-26.04-21.11-47.14-47.14-47.14H47.14C21.11,0,0,21.11,0,47.14Z"/></clipPath></defs><g class="cls-2"><image width="1080" height="1080" xlink:href="../../../../../Documents/Personal/Branding/Intimates/Cover.png"/></g><path class="cls-1" d="M0,47.14v985.72c0,26.04,21.11,47.14,47.14,47.14h708.86c59.65,0,108-48.35,108-108h0c0-59.65,48.35-108,108-108h0c59.65,0,108-48.35,108-108V47.14c0-26.04-21.11-47.14-47.14-47.14H47.14C21.11,0,0,21.11,0,47.14Z"/></svg>