<?xml version="1.0" encoding="UTF-8"?>
<svg id="Layer_1" data-name="Layer 1" xmlns="http://www.w3.org/2000/svg" viewBox="0 0 1080 1080">
  <defs>
    <style>
      .cls-1 {
        fill: #fff;
      }
    </style>
  </defs>
  <path class="cls-1" d="M455.54,427.19c23.1-14.57,50.47-23.81,82.1-23.81,73.93,0,124.4,49.4,124.4,130.44,0,44.43-13.51,89.92-38.74,139.68h-53.67c29.86-52.25,42.65-99.16,42.65-137.19,0-53.67-27.72-88.5-78.19-88.5-16.35,0-30.92,3.55-44.07,9.95,33.05,38.74,48.69,90.28,48.69,127.6,0,56.87-34.48,91.7-86.01,91.7s-85.66-32.34-85.66-88.86c0-38.03,17.42-90.28,52.25-129.73-13.51-7.11-28.43-11.02-44.78-11.02v-44.07c31.99,0,59,9.24,81.04,23.81ZM452.69,634.05c22.75,0,37.32-17.42,37.32-48.34s-12.8-70.73-36.61-98.81c-25.59,30.21-37.67,71.44-37.67,100.94s15.64,46.2,36.96,46.2Z"/>
  <path d="M1077.99,540c0-76.16-47.18-142.23-114.79-175.29,24.43-71.19,11.08-151.27-42.78-205.12-53.86-53.86-133.94-67.21-205.12-42.78C682.24,49.19,616.17,2.01,540,2.01s-142.23,47.18-175.29,114.79c-71.19-24.44-151.27-11.08-205.12,42.78-53.86,53.86-67.22,133.94-42.78,205.12C49.19,397.77,2.01,463.84,2.01,540s47.18,142.23,114.79,175.29c-24.43,71.19-11.08,151.26,42.78,205.12,53.85,53.86,133.93,67.22,205.12,42.78,33.05,67.62,99.13,114.79,175.29,114.79s142.24-47.18,175.29-114.79c71.19,24.44,151.26,11.08,205.12-42.78,53.85-53.86,67.22-133.93,42.78-205.12,67.62-33.06,114.79-99.13,114.79-175.29Z"/>
  <path class="cls-1" d="M426.3,322.19c44.52-28.08,97.26-45.89,158.22-45.89,142.46,0,239.72,95.21,239.72,251.37,0,85.62-26.03,173.29-74.66,269.18h-103.42c57.53-100.68,82.19-191.09,82.19-264.38,0-103.42-53.42-170.55-150.68-170.55-31.51,0-59.59,6.85-84.93,19.18,63.7,74.66,93.83,173.97,93.83,245.89,0,109.59-66.44,176.71-165.75,176.71s-165.07-62.33-165.07-171.23c0-73.29,33.56-173.97,100.68-250-26.03-13.7-54.79-21.23-86.3-21.23v-84.93c61.64,0,113.7,17.81,156.16,45.89ZM420.82,720.82c43.84,0,71.92-33.56,71.92-93.15s-24.66-136.3-70.55-190.41c-49.32,58.22-72.6,137.67-72.6,194.52s30.14,89.04,71.23,89.04Z"/>
</svg>