<?xml version="1.0" encoding="UTF-8"?><svg id="Layer_1" xmlns="http://www.w3.org/2000/svg" viewBox="0 0 246.48 89.76"><path d="M10.18,8.21c0,2.02.07,8.23-4.44,8.23S1.3,10.27,1.3,8.21C1.3,5.57,1.47,0,5.74,0c4.51,0,4.44,6.1,4.44,8.21ZM2.98,8.21c0,4.32.5,6.72,2.76,6.72,2.78,0,2.76-3.94,2.76-6.72,0-3.02.07-6.7-2.76-6.7s-2.76,4.34-2.76,6.7Z"/><path d="M16.83.22h4.32c1.58,0,3.58,1.37,3.58,4.25,0,1.97-.79,3.84-2.76,4.51l3.31,6.86-1.44.7-3.6-7.44h-1.8v7.13h-1.61V.22ZM18.44,7.66h2.35c1.39,0,2.26-1.03,2.26-3.19s-1.01-2.81-2.64-2.81h-1.97v6Z"/><path d="M32.36,11.28l-1.25,5.26-1.58-.43L33.58.22h1.92l4.06,15.89-1.58.43-1.25-5.26h-4.37ZM34.57,2.35h-.05l-1.78,7.49h3.6l-1.78-7.49Z"/><path d="M48.18,1.66h-3.46V.22h8.45v1.44h-3.38v14.57h-1.61V1.66Z"/><path d="M67.78,8.21c0,2.02.07,8.23-4.44,8.23s-4.44-6.17-4.44-8.23c0-2.64.17-8.21,4.44-8.21,4.51,0,4.44,6.1,4.44,8.21ZM60.58,8.21c0,4.32.5,6.72,2.76,6.72,2.78,0,2.76-3.94,2.76-6.72,0-3.02.07-6.7-2.76-6.7s-2.76,4.34-2.76,6.7Z"/><path d="M74.43.22h4.32c1.58,0,3.58,1.37,3.58,4.25,0,1.97-.79,3.84-2.76,4.51l3.31,6.86-1.44.7-3.6-7.44h-1.8v7.13h-1.61V.22ZM76.04,7.66h2.35c1.39,0,2.26-1.03,2.26-3.19s-1.01-2.81-2.64-2.81h-1.97v6Z"/><path d="M108.85,3.86c-.26-1.18-.84-2.35-2.21-2.35-1.51,0-2.11,1.22-2.11,2.57s.26,1.7,2.78,3.22c1.97,1.18,3.31,2.16,3.31,4.63s-1.34,4.51-4.03,4.51c-2.83,0-3.86-1.87-4.1-4.42l1.61-.22c.22,1.78.6,3.12,2.54,3.12,1.39,0,2.38-.94,2.38-2.86,0-2.11-1.37-2.83-3.02-3.79-1.85-1.08-3.07-1.85-3.07-4.2,0-2.16,1.44-4.08,3.72-4.08s3.36,1.61,3.77,3.62l-1.56.24Z"/><path d="M120.17,1.66h-3.46V.22h8.45v1.44h-3.38v14.57h-1.61V1.66Z"/><path d="M131,1.66V.22h4.22c3.22,0,5.11,1.42,5.11,8.02,0,3.53-.19,7.99-5.06,7.99h-4.27v-1.44h1.3V1.66h-1.3ZM133.9,14.79h1.32c1.94,0,3.43-.5,3.43-6.55s-1.63-6.58-3.05-6.58h-1.7v13.13Z"/><path d="M166.45.22h2.02l.48,16.01h-1.7l-.31-13.35h-.05l-2.74,8.04-2.74-8.04h-.05l-.31,13.35h-1.68l.48-16.01h1.99l2.3,6.79,2.3-6.79Z"/><path d="M175.11.22h7.8v1.44h-6.19v5.28h5.11v1.44h-5.11v6.41h6.19v1.44h-7.8V.22Z"/><path d="M188.6,1.66V.22h4.22c3.22,0,5.11,1.42,5.11,8.02,0,3.53-.19,7.99-5.06,7.99h-4.27v-1.44h1.3V1.66h-1.3ZM191.5,14.79h1.32c1.94,0,3.43-.5,3.43-6.55s-1.63-6.58-3.05-6.58h-1.7v13.13Z"/><path d="M206.53,1.66h-2.16V.22h5.95v1.44h-2.18v13.13h2.18v1.44h-5.95v-1.44h2.16V1.66Z"/><path d="M219.44.22v11.64c0,1.58.31,3.07,2.3,3.07s2.33-1.51,2.33-3.07V.22h1.61v12.12c0,2.5-1.56,4.1-3.94,4.1s-3.91-1.66-3.91-4.03V.22h1.61Z"/><path d="M238.44.22h2.02l.48,16.01h-1.7l-.31-13.35h-.05l-2.74,8.04-2.74-8.04h-.05l-.31,13.35h-1.68l.48-16.01h1.99l2.3,6.79,2.3-6.79Z"/><path d="M1.89,36.93l-.83,3.51-1.06-.29,2.71-10.6h1.28l2.71,10.6-1.06.29-.83-3.51H1.89ZM3.36,30.97h-.03l-1.18,4.99h2.4l-1.18-4.99Z"/><path d="M10.1,40.23v-.96h.86v-8.76h-.86v-.96h3.27c1.17,0,2.37.98,2.37,2.69,0,.88-.35,1.63-1.14,2.06,1.2.53,1.63,1.44,1.63,2.72,0,2.22-1.22,3.2-2.69,3.2h-3.44ZM12.99,33.94c1.1,0,1.62-.58,1.62-1.7,0-1.31-.66-1.73-1.95-1.73h-.62v3.43h.96ZM13.49,39.27c.96,0,1.62-.7,1.62-2.26s-.78-2.11-1.9-2.11h-1.17v4.37h1.46Z"/><path d="M25.54,38.62c-.62,1.01-1.55,1.74-2.77,1.74-2.79,0-3.2-3.36-3.2-5.47s.42-5.49,3.2-5.49c1.22,0,2.05.7,2.61,1.73l-.91.54c-.34-.67-.88-1.26-1.7-1.26-1.95,0-2.08,3.07-2.08,4.48s.13,4.47,2.08,4.47c.83,0,1.49-.69,1.89-1.34l.88.61Z"/><path d="M29.25,30.51v-.96h2.82c2.15,0,3.41.94,3.41,5.35,0,2.35-.13,5.33-3.38,5.33h-2.85v-.96h.86v-8.76h-.86ZM31.18,39.27h.88c1.3,0,2.29-.34,2.29-4.37s-1.09-4.39-2.03-4.39h-1.14v8.76Z"/><path d="M39.46,29.55h5.2v.96h-4.13v3.52h3.41v.96h-3.41v4.27h4.13v.96h-5.2v-10.68Z"/><path d="M49.36,29.55h5.25v.96h-4.18v3.52h3.51v.96h-3.51v5.23h-1.07v-10.68Z"/><path d="M63.76,39.44c-.69.56-1.58.93-2.48.93-2.75,0-3.23-3.33-3.23-5.46,0-2,.46-5.51,3.12-5.51,1.2,0,2.08.74,2.67,1.71l-.94.58c-.38-.69-.94-1.28-1.79-1.28-1.78,0-1.94,3.27-1.94,4.53,0,3.67,1.07,4.42,2.13,4.42.45,0,1.02-.19,1.39-.5v-3.22h-2v-.96h3.07v4.75Z"/><path d="M67.82,29.55h1.07v4.48h3.3v-4.48h1.07v10.68h-1.07v-5.23h-3.3v5.23h-1.07v-10.68Z"/><path d="M79.6,30.51h-1.44v-.96h3.97v.96h-1.46v8.76h1.46v.96h-3.97v-.96h1.44v-8.76Z"/><path d="M87.76,36.35v1.07c0,.85.37,1.94,1.58,1.94.96,0,1.54-.86,1.54-2.08v-7.73h1.07v7.84c0,2.03-1.31,2.98-2.69,2.98s-2.58-.93-2.58-3.03v-.99h1.07Z"/><path d="M98.21,33.95h.29l2.98-4.61.86.54-2.93,4.51,3.51,5.49-.9.54-3.44-5.52h-.37v5.31h-1.07v-10.68h1.07v4.4Z"/><path d="M106.85,29.55h1.07v9.72h4.39v.96h-5.46v-10.68Z"/><path d="M120.08,29.55h1.34l.32,10.68h-1.14l-.21-8.9h-.03l-1.82,5.36-1.82-5.36h-.03l-.21,8.9h-1.12l.32-10.68h1.33l1.54,4.53,1.54-4.53Z"/><path d="M125.36,29.55h1.34l3.17,8.98.03-.03-.05-2.39v-6.56h1.07v10.68h-1.34l-3.17-9-.03.03.05,2.42v6.55h-1.07v-10.68Z"/><path d="M140.7,34.88c0,1.34.05,5.49-2.96,5.49s-2.96-4.11-2.96-5.49c0-1.76.11-5.47,2.96-5.47,3.01,0,2.96,4.07,2.96,5.47ZM135.9,34.88c0,2.88.34,4.48,1.84,4.48,1.86,0,1.84-2.62,1.84-4.48,0-2.02.05-4.47-1.84-4.47s-1.84,2.9-1.84,4.47Z"/><path d="M146.21,40.23h-1.07v-10.68h2.32c1.89,0,2.95,1.01,2.95,2.83,0,1.98-1.12,3.09-2.59,3.09h-1.6v4.75ZM146.21,34.51l1.5-.02c.99-.02,1.57-.77,1.57-2.11s-.69-1.87-1.84-1.87h-1.23v4Z"/><path d="M159.89,39.86l-.82.67-.62-.75c-.42.37-.94.59-1.5.59-1.49,0-2.96-1.47-2.96-5.47,0-3.73,1.3-5.49,2.96-5.49,1.49,0,2.96,1.46,2.96,5.49,0,1.31-.14,2.87-.8,4.03l.78.93ZM156.43,37.39l.82-.69,1.12,1.33c.32-.98.42-2.06.42-3.11,0-1.22-.1-4.51-1.86-4.51s-1.82,3.35-1.82,4.56c0,1.14.14,4.39,1.76,4.39.37,0,.67-.1.93-.35l-1.36-1.62Z"/><path d="M164.33,29.55h2.88c1.06,0,2.39.91,2.39,2.83,0,1.31-.53,2.56-1.84,3.01l2.21,4.58-.96.46-2.4-4.96h-1.2v4.75h-1.07v-10.68ZM165.41,34.51h1.57c.93,0,1.5-.69,1.5-2.13s-.67-1.87-1.76-1.87h-1.31v4Z"/><path d="M177.68,31.98c-.18-.78-.56-1.57-1.47-1.57-1.01,0-1.41.82-1.41,1.71s.18,1.14,1.86,2.14c1.31.78,2.21,1.44,2.21,3.09s-.9,3.01-2.69,3.01c-1.89,0-2.58-1.25-2.74-2.95l1.07-.14c.14,1.18.4,2.08,1.7,2.08.93,0,1.58-.62,1.58-1.9,0-1.41-.91-1.89-2.02-2.53-1.23-.72-2.05-1.23-2.05-2.8,0-1.44.96-2.72,2.48-2.72s2.24,1.07,2.51,2.42l-1.04.16Z"/><path d="M185.23,30.51h-2.3v-.96h5.63v.96h-2.26v9.72h-1.07v-9.72Z"/><path d="M193.81,29.55v7.76c0,1.06.21,2.05,1.54,2.05s1.55-1.01,1.55-2.05v-7.76h1.07v8.08c0,1.67-1.04,2.74-2.63,2.74s-2.61-1.1-2.61-2.69v-8.13h1.07Z"/><path d="M204.96,37.33l2.19-7.99,1.09.22-3.17,10.87h-.26l-3.17-10.87,1.09-.22,2.19,7.99h.03Z"/><path d="M217.87,29.55l-1.07,10.88h-.46l-1.78-6.45h-.03l-1.78,6.45h-.46l-1.07-10.88,1.07-.21.51,8.02h.03l1.55-5.62h.32l1.55,5.62h.03l.51-8.02,1.07.21Z"/><path d="M221.79,40.43l-.96-.45,2.79-5.57-2.29-4.58.99-.5,1.82,3.99,1.82-3.99.99.5-2.29,4.58,2.79,5.57-.96.45-2.34-4.88-2.37,4.88Z"/><path d="M236.05,29.34l.99.4-2.77,6.27v4.21h-1.07v-4.21l-2.75-6.27.99-.4,2.3,5.43,2.31-5.43Z"/><path d="M244.73,30.51h-4.07v-.96h5.68l-4.51,9.72h4.64v.96h-6.27l4.53-9.72Z"/><path d="M1.87,61.95l-.78,2.48-1.06-.38,2.62-8.16h1.38l2.62,8.16-1.06.38-.77-2.48H1.87ZM3.35,57.13l-1.18,3.86h2.37l-1.18-3.86Z"/><path d="M10.1,64.23v-.96h.86v-6.42h-.86v-.96h2.62c2.11,0,3.03.8,3.03,2.23,0,.72-.3,1.36-.94,1.71.91.29,1.42,1.07,1.42,2.02,0,1.5-.99,2.38-2.74,2.38h-3.39ZM13.23,59.46c.93,0,1.39-.59,1.39-1.34,0-.99-.7-1.26-1.46-1.26h-1.14v2.61h1.2ZM13.28,63.27c.94,0,1.82-.21,1.82-1.34,0-.83-.54-1.5-1.57-1.5h-1.5v2.85h1.25Z"/><path d="M25.54,62.62c-.67,1.06-1.47,1.74-2.77,1.74-2.43,0-3.2-2.24-3.2-4.31,0-3.33,1.76-4.32,3.11-4.32s2.05.67,2.64,1.78l-.98.5c-.35-.67-.83-1.26-1.65-1.26-1.66,0-2,2.02-2,3.3s.3,3.31,2,3.31c.98,0,1.47-.59,1.97-1.34l.88.61Z"/><path d="M29.25,55.89h2.79c2.37,0,3.44.98,3.44,4.07,0,2.61-.45,4.27-3.44,4.27h-2.79v-.96h.86v-6.42h-.86v-.96ZM31.18,63.27h1.14c1.41,0,2.03-.8,2.03-3.2,0-2.56-.74-3.22-2.06-3.22h-1.1v6.42Z"/><path d="M39.46,55.89h5.2v.96h-4.13v2.5h3.41v.96h-3.41v2.96h4.13v.96h-5.2v-8.34Z"/><path d="M49.36,55.89h5.25v.96h-4.18v2.5h3.51v.96h-3.51v3.92h-1.07v-8.34Z"/><path d="M63.76,63.46c-.69.54-1.71.91-2.56.91-2.45,0-3.15-2.27-3.15-4.32s.74-4.31,3.12-4.31c1.12,0,2.1.66,2.67,1.6l-.91.59c-.4-.67-1.01-1.18-1.82-1.18-1.65,0-1.94,2.06-1.94,3.33s.29,3.28,1.97,3.28c.54,0,1.09-.14,1.55-.43v-2.19h-2v-.96h3.07v3.68Z"/><path d="M67.82,55.89h1.07v3.46h3.3v-3.46h1.07v8.34h-1.07v-3.92h-3.3v3.92h-1.07v-8.34Z"/><path d="M78.43,63.27h1.17v-6.42h-1.17v-.96h3.43v.96h-1.18v6.42h1.18v.96h-3.43v-.96Z"/><path d="M87.76,61.12c-.06,1.63.4,2.24,1.5,2.24s1.62-.66,1.62-1.66v-5.81h1.07v6.02c0,1.18-.83,2.46-2.69,2.46s-2.58-1.02-2.58-3.25h1.07Z"/><path d="M98.21,59.44h.4l2.87-3.76.82.64-2.77,3.51,3.25,3.92-.82.69-3.38-4.11h-.37v3.91h-1.07v-8.34h1.07v3.55Z"/><path d="M106.86,55.89h1.07v7.38h4.37v.96h-5.44v-8.34Z"/><path d="M116.67,57.47h-.03l-.21,6.75h-1.14l.34-8.34h1.41l1.5,3.62,1.5-3.62h1.41l.34,8.34h-1.14l-.21-6.75h-.03l-1.87,4.4-1.87-4.4Z"/><path d="M125.36,55.89h1.33l3.23,7.03.03-.03-.1-2.16v-4.83h1.07v8.34h-1.33l-3.23-7.03-.03.03.1,2.18v4.82h-1.07v-8.34Z"/><path d="M140.7,60.06c0,.67-.05,4.31-2.96,4.31-1.34,0-2.96-.96-2.96-4.31s1.58-4.32,2.96-4.32,2.96.96,2.96,4.32ZM135.9,60.06c0,1.22.22,3.3,1.84,3.3s1.84-2.08,1.84-3.3-.22-3.31-1.84-3.31-1.84,2.08-1.84,3.31Z"/><path d="M146.21,64.23h-1.07v-8.34h2.59c1.94,0,2.69,1.06,2.69,2.27,0,1.76-1.25,2.48-2.42,2.48h-1.79v3.59ZM147.68,59.68c1.06,0,1.62-.48,1.62-1.44,0-1.14-.74-1.39-1.62-1.39h-1.47v2.83h1.47Z"/><path d="M160.14,63.97l-.67.72-.93-.85c-.46.35-1.01.53-1.6.53-1.33,0-2.96-.96-2.96-4.31s1.46-4.32,2.96-4.32c1.33,0,2.96.96,2.96,4.32,0,.98-.14,2.21-.7,3.04l.94.86ZM156.38,61.87l.66-.74,1.34,1.23c.3-.72.4-1.54.4-2.3,0-1.23-.22-3.31-1.84-3.31s-1.84,2.08-1.84,3.31.22,3.3,1.84,3.3c.29,0,.58-.08.83-.22l-1.39-1.26Z"/><path d="M164.13,55.89h2.83c1.39,0,2.5.66,2.5,2.27,0,1.02-.69,2.03-1.7,2.34l2.05,3.38-.93.56-2.13-3.78h-1.55v3.57h-1.07v-8.34ZM166.61,59.7c1.04,0,1.73-.59,1.73-1.54,0-.75-.45-1.31-1.41-1.31h-1.73v2.85h1.41Z"/><path d="M174.4,61.58c.21,1.02.7,1.78,1.82,1.78.88,0,1.57-.48,1.57-1.41,0-1.02-.86-1.28-1.68-1.62-1.22-.51-2.37-.83-2.37-2.4,0-1.41,1.14-2.19,2.45-2.19,1.39,0,2.21.8,2.54,2.1l-1.02.3c-.19-.82-.62-1.39-1.54-1.39-.69,0-1.36.35-1.36,1.1s.48,1.01,1.12,1.3l1.78.78c.75.42,1.15,1.09,1.15,1.95,0,1.58-1.1,2.48-2.64,2.48s-2.53-.99-2.79-2.48l.96-.3Z"/><path d="M185.23,56.85h-2.3v-.96h5.63v.96h-2.26v7.38h-1.07v-7.38Z"/><path d="M193.81,55.89v5.68c0,1.22.35,1.79,1.46,1.79,1.34,0,1.63-.59,1.63-1.79v-5.68h1.07v6.19c0,1.1-.78,2.29-2.63,2.29s-2.61-1.14-2.61-2.35v-6.13h1.07Z"/><path d="M207.22,55.68l1.02.38-3.2,8.37h-.19l-3.2-8.37,1.02-.38,2.27,6.11,2.27-6.11Z"/><path d="M212.33,55.68l.64,5.86h.03l1.39-4.1h.29l1.39,4.1h.03l.66-5.86,1.09.13-1.2,8.63h-.37l-1.75-5.14-1.74,5.14h-.37l-1.2-8.63,1.1-.13Z"/><path d="M221.92,64.43l-.96-.54,2.58-4.08-2.35-3.57.98-.56,1.98,3.17,1.98-3.17.98.56-2.35,3.57,2.58,4.08-.96.54-2.23-3.68-2.22,3.68Z"/><path d="M235.97,55.68l1.01.53-2.71,4.8v3.22h-1.07v-3.22l-2.69-4.8,1.01-.53,2.22,4.29,2.23-4.29Z"/><path d="M244.57,56.85h-3.91v-.96h5.68l-4.34,7.38h4.47v.96h-6.27l4.37-7.38Z"/><path d="M3.01,78.85l-1.95.75-.34-.98,3.36-1.28v9.92h2.29v.96H.32v-.96h2.69v-8.42Z"/><path d="M9.97,87.27l3.95-5.11c.5-.64.9-1.14.9-2,0-1.01-.67-1.74-1.71-1.74-1.26,0-1.9.99-2.06,2.15l-1.06-.14c.26-1.78,1.23-3.01,3.12-3.01,1.68,0,2.83,1.02,2.83,2.72,0,1.02-.51,1.82-1.12,2.61l-3.49,4.53h4.59v.96h-5.95v-.96Z"/><path d="M20.82,81.76l3.15-3.25h-4.45v-.96h5.92v.96l-2.96,3.02c1.66-.03,3.09.94,3.09,2.72,0,1.42-.75,2.53-1.94,3.25-.88.54-1.92.86-3.97.86v-1.01c1.76,0,2.51-.19,3.07-.51.94-.51,1.71-1.44,1.71-2.56,0-1.36-1.2-1.79-2.38-1.79-.42,0-.83.08-1.25.13v-.86Z"/><path d="M29.1,85.55l1.58-8.21,1.07.29-1.38,6.96h2.9v-5.43h1.07v5.43h.85v.96h-.85v2.67h-1.07v-2.67h-4.18Z"/><path d="M39.14,77.55h5.47v.96h-4.4v3.28c.53-.19,1.02-.34,1.58-.34,1.57,0,2.9,1.06,2.9,2.83,0,1.39-.74,2.54-1.89,3.28-.83.53-1.92.8-4,.8v-1.01c1.33,0,2.4-.08,3.12-.46.96-.51,1.65-1.49,1.65-2.61s-.77-1.82-1.89-1.82c-.67,0-1.2.26-1.78.56h-.77v-5.47Z"/><path d="M53.3,79.21c-.5-.43-1.02-.8-1.71-.8-1.94,0-2.06,2.46-2.11,3.89.64-.54,1.28-.86,2.13-.86,2.02,0,2.75,1.66,2.75,3.43,0,1.9-1.02,3.51-3.07,3.51-2.75,0-2.93-3.33-2.93-5.36,0-2.18.27-5.6,3.19-5.6.88,0,1.73.34,2.37.93l-.61.88ZM51.36,87.36c1.31,0,1.87-1.15,1.87-2.45,0-1.22-.37-2.46-1.79-2.46-.77,0-1.42.53-1.97,1.04.02,3.35.91,3.87,1.89,3.87Z"/><path d="M62.85,78.51h-4.4v-.96h5.95l-4.85,10.88-.96-.43,4.26-9.49Z"/><path d="M73.6,85.5c0,1.74-1.36,2.87-3.06,2.87s-3.06-1.12-3.06-2.87c0-1.49.93-2.19,2.15-2.8-.98-.61-1.79-1.34-1.79-2.58,0-1.55,1.14-2.72,2.71-2.72s2.71,1.17,2.71,2.72c0,1.23-.8,1.97-1.78,2.58,1.2.61,2.13,1.31,2.13,2.8ZM68.61,85.55c0,1.1.86,1.81,1.94,1.81s1.94-.7,1.94-1.81c0-1.26-.99-1.71-1.94-2.31-.94.59-1.94,1.04-1.94,2.31ZM72.13,80.13c0-.96-.58-1.71-1.58-1.71s-1.58.75-1.58,1.71c0,1.07.8,1.49,1.58,2.02.78-.53,1.58-.94,1.58-2.02Z"/><path d="M78.19,86.56c.5.45,1.04.8,1.73.8,1.94,0,2.05-2.46,2.1-3.89-.62.54-1.28.86-2.11.86-2.02,0-2.75-1.65-2.75-3.43,0-1.89,1.01-3.51,3.06-3.51,2.77,0,2.93,3.33,2.93,5.36,0,2.18-.27,5.6-3.19,5.6-.86,0-1.73-.34-2.37-.93l.61-.88ZM80.14,78.41c-1.31,0-1.87,1.15-1.87,2.46,0,1.22.35,2.45,1.79,2.45.75,0,1.42-.53,1.95-1.02,0-3.28-.86-3.89-1.87-3.89Z"/><path d="M89.22,84.91l-.29-7.36h1.63l-.32,7.36h-1.02ZM89.01,85.86h1.47v2.37h-1.47v-2.37Z"/><path d="M98.74,84.7v-.27c0-1.15.1-1.39,1.01-2.18.67-.58,1.39-1.14,1.39-2.11s-.58-1.73-1.62-1.73c-1.28,0-1.84,1.1-2.03,2.21l-1.06-.27c.34-1.71,1.17-2.95,3.06-2.95,1.65,0,2.77,1.04,2.77,2.71,0,1.23-.7,1.98-1.58,2.74-.66.58-.83.7-.83,1.63v.22h-1.1ZM98.54,85.86h1.47v2.37h-1.47v-2.37Z"/><path d="M106.21,88.66l4.74-12.39h.74l-4.74,12.39h-.74Z"/><path d="M122.16,87.14c-1.17.77-2.53,1.23-3.94,1.23-2,0-4.18-1.38-4.18-4.59,0-2.91,1.6-6.37,4.9-6.37,1.7,0,4.1,1.28,4.1,4.45,0,1.46-.66,3.65-2.43,3.65-.66,0-.88-.19-1.33-.66-.48.42-.8.66-1.47.66-.85,0-1.46-.59-1.46-1.44s.35-1.89.86-2.54c.46-.59,1.17-1.02,3.38-.94l-.4,2.42c-.03.21-.11.66-.11.86,0,.35.16.64.54.64,1.02,0,1.3-1.78,1.3-2.56,0-2.11-1.23-3.52-3.07-3.52s-3.68,1.94-3.68,5.39c0,2.21,1.23,3.55,3.14,3.55,1.31,0,2.38-.53,3.47-1.23l.38,1.01ZM119.36,81.58c-.4.08-.88.11-1.17.46-.38.46-.72,1.31-.72,1.94,0,.24.11.51.42.51.48,0,1.01-.5,1.39-2.5l.08-.42Z"/><path d="M128.32,75.34l-2.59,14.42h-.72l.98-5.36h-2.15l.13-.7h2.15l.45-2.51h-2.15l.13-.7h2.14l.93-5.14h.7ZM127.89,89.76l2.64-14.42h.7l-.93,5.14h2.16l-.14.7h-2.14l-.45,2.51h2.14l-.13.7h-2.15l-.99,5.36h-.72Z"/><path d="M137.14,83.14c-1.1-.29-2.02-1.06-2.02-2.26,0-1.12.96-1.97,2.02-2.14v-1.33h1.12v1.33c.91.08,1.7.69,2.24,1.39l-.78.69c-.72-.8-1.04-1.01-1.46-1.07v2.62c1.3.19,2.43.98,2.43,2.4,0,1.33-1.18,2.26-2.43,2.27v1.33h-1.12v-1.33c-.99-.05-1.82-.77-2.34-1.58l.88-.64c.37.54.75,1.12,1.46,1.22v-2.9ZM137.14,79.74c-.53.13-.9.67-.9,1.18s.38.96.9,1.14v-2.32ZM138.26,86.03c.7-.03,1.31-.54,1.31-1.28s-.64-1.2-1.31-1.3v2.58Z"/><path d="M150.83,77.74l-6.02,10.63-.96-.51,5.28-9.28c-.22.1-.48.13-.72.13-.29,0-.58-.05-.85-.14.1.27.14.56.14.85,0,1.07-.61,2.02-1.74,2.02s-1.76-.94-1.76-2.02.61-2,1.76-2c.38,0,.7.11,1.07.22.38.13.78.27,1.31.27.64,0,1.34-.11,1.9-.48l.58.32ZM145.97,78.21c-.64,0-.8.7-.8,1.2s.16,1.22.8,1.22.78-.7.78-1.22-.16-1.2-.78-1.2ZM148.69,88.37c-1.15,0-1.76-.94-1.76-2s.61-2,1.76-2,1.74.94,1.74,2-.61,2-1.74,2ZM148.69,85.17c-.64,0-.8.69-.8,1.2s.16,1.2.8,1.2.78-.69.78-1.2-.16-1.2-.78-1.2Z"/><path d="M158.58,78.03c-1.44,1.38-1.98,3.41-1.98,5.31s.54,3.94,1.98,5.31l-.64.64c-1.68-1.42-2.46-3.84-2.46-5.95s.78-4.53,2.46-5.94l.64.62Z"/><path d="M165.55,77.41c1.68,1.41,2.46,3.83,2.46,5.94s-.78,4.53-2.46,5.95l-.64-.64c1.44-1.38,1.98-3.39,1.98-5.31s-.54-3.94-1.98-5.31l.64-.62Z"/></svg>