<svg width="429" height="472" viewBox="0 0 429 472" fill="none" xmlns="http://www.w3.org/2000/svg">
<path d="M43.2957 494.356C34.5346 489.186 29.7688 478.738 32.2607 468.334C43.3694 421.905 57.6539 373.249 86.6995 331.896C112.143 295.687 146.759 270.112 183.655 259.217C184.484 257.215 185.358 255.202 186.261 253.182C200.311 221.785 220.839 192.84 245.629 169.505C271.538 145.106 302.173 126.83 334.216 116.656C404.094 94.4674 481.996 110.714 532.708 158.051C542.312 167.014 542.823 182.072 533.86 191.676C524.896 201.28 509.839 201.792 500.235 192.828C462.479 157.578 401.55 145.184 348.618 162C303.875 176.215 263.968 210.115 238.872 254.454C260.917 257.45 282.679 266.531 300.543 280.469C325.211 299.719 340.257 325.957 342.891 354.343C344.076 367.043 342.753 378.942 338.978 389.709C332.246 408.896 316.708 424.759 296.343 433.221C277.278 441.141 255.568 441.99 236.789 435.55C202.855 423.903 176.676 390.906 170.09 351.482C168.274 340.598 167.835 329.32 168.751 317.684C152.725 327.661 137.895 341.791 125.62 359.266C101.162 394.082 88.5274 437.597 78.5205 479.431C75.4606 492.205 62.6292 500.092 49.846 497.027C47.4766 496.459 45.2758 495.563 43.2791 494.384L43.2957 494.356ZM219.639 301.007C215.748 316.384 214.861 330.655 217.028 343.632C220.711 365.719 234.858 384.571 252.233 390.535C268.47 396.104 289.201 387.896 294.087 373.948C295.559 369.748 296.056 364.493 295.514 358.739C292.584 327.21 258.039 300.207 221.596 300.954C220.934 300.966 220.282 300.984 219.625 301.011L219.639 301.007Z" fill="#2A2A2A"/>
<path d="M41.9191 496.689C31.8425 490.743 26.9026 479.097 29.6288 467.699C40.8043 421.008 55.1776 372.052 84.4864 330.338C109.737 294.393 144.208 268.38 181.659 256.994C182.345 255.362 183.067 253.712 183.793 252.078C197.987 220.351 218.725 191.114 243.775 167.53C269.985 142.856 300.975 124.362 333.391 114.068C404.183 91.5888 483.142 108.07 534.546 156.066C539.722 160.894 542.695 167.454 542.95 174.524C543.192 181.597 540.667 188.347 535.835 193.509C531.003 198.67 524.447 201.657 517.378 201.913C510.304 202.154 503.564 199.636 498.393 194.798C461.326 160.193 401.473 148.044 349.439 164.573C306.742 178.134 268.209 210.027 243.208 252.371C264.44 255.956 285.251 265.093 302.213 278.322C327.484 298.041 342.892 324.946 345.6 354.08C346.816 367.176 345.456 379.456 341.548 390.597C334.562 410.514 318.469 426.956 297.389 435.712C277.718 443.891 255.308 444.755 235.912 438.102C201.043 426.142 174.165 392.305 167.418 351.918C165.863 342.572 165.289 332.824 165.718 322.888C151.564 332.549 138.545 345.572 127.838 360.815C103.64 395.255 91.1034 438.476 81.1485 480.051C79.5041 486.93 75.2714 492.76 69.2339 496.468C63.2019 500.166 56.0903 501.303 49.2018 499.653C46.6221 499.037 44.1511 498.044 41.8932 496.712L41.9191 496.689ZM499.733 136.805C451.972 108.62 390.916 101.472 335.043 119.22C303.387 129.27 273.111 147.343 247.494 171.461C222.968 194.562 202.645 223.2 188.744 254.282C187.863 256.266 186.989 258.279 186.162 260.256C185.842 261.011 185.215 261.584 184.427 261.811C147.669 272.662 113.747 298.106 88.9181 333.444C60.1316 374.422 45.9399 422.793 34.8887 468.954C32.7233 478.016 36.6481 487.289 44.6628 492.019C46.4635 493.081 48.4239 493.873 50.4786 494.356C55.9581 495.665 61.611 494.762 66.4149 491.823C71.2093 488.878 74.5775 484.237 75.8864 478.757C85.9602 436.661 98.6933 392.851 123.405 357.67C135.646 340.251 150.827 325.611 167.326 315.346C168.199 314.804 169.26 314.776 170.163 315.334C171.035 315.861 171.54 316.838 171.454 317.857C170.55 329.237 170.994 340.38 172.771 350.989C179.187 389.444 204.661 421.61 237.675 432.941C255.837 439.168 276.842 438.342 295.306 430.672C314.957 422.506 329.949 407.226 336.425 388.769C340.067 378.377 341.34 366.863 340.2 354.554C337.631 326.911 322.951 301.354 298.877 282.568C281.607 269.093 260.163 260.049 238.513 257.109C237.627 256.99 236.85 256.43 236.454 255.631C236.058 254.831 236.081 253.876 236.529 253.096C262.127 207.884 302.688 173.728 347.813 159.399C401.644 142.296 463.649 154.935 502.093 190.83C506.21 194.681 511.569 196.686 517.206 196.491C522.829 196.299 528.055 193.924 531.892 189.81C535.728 185.696 537.748 180.334 537.552 174.697C537.361 169.074 534.985 163.848 530.872 160.011C521.391 151.158 510.926 143.398 499.748 136.801L499.733 136.805ZM243.368 389.379C228.85 380.812 217.621 363.644 214.355 344.068C212.138 330.771 213.036 316.055 217.015 300.339C217.309 299.179 218.329 298.346 219.527 298.299C220.208 298.273 220.881 298.242 221.552 298.236C259.341 297.466 295.172 325.617 298.223 358.476C298.792 364.611 298.248 370.265 296.648 374.831C291.309 390.059 268.869 399.094 251.356 393.087C248.605 392.143 245.933 390.893 243.368 389.379ZM221.777 303.652C218.391 317.894 217.695 331.182 219.696 343.181C223.223 364.32 236.657 382.312 253.112 387.959C267.788 392.997 287.175 385.468 291.532 373.032C292.878 369.197 293.318 364.337 292.822 358.974C290.015 328.813 256.831 302.978 221.773 303.637L221.777 303.652Z" fill="#F98DE2"/>
<path d="M218.263 303.339C217.265 302.75 216.717 301.547 217.013 300.363C221.115 283.65 230.015 264.133 236.545 253.068C237.305 251.78 238.967 251.352 240.254 252.112C241.542 252.872 241.97 254.533 241.21 255.821C234.675 266.896 226.066 286.194 222.275 301.656C221.922 303.108 220.451 304.002 219.005 303.639C218.742 303.572 218.496 303.477 218.272 303.345L218.263 303.339Z" fill="#F98DE2"/>
<path d="M167.386 319.998C166.509 319.48 165.97 318.495 166.064 317.419C168.086 295.064 172.754 276.773 181.193 258.103C181.807 256.743 183.413 256.131 184.774 256.745C186.144 257.365 186.747 258.966 186.133 260.327C177.957 278.422 173.429 296.179 171.465 317.902C171.328 319.393 170.013 320.491 168.522 320.354C168.107 320.31 167.727 320.187 167.391 319.988L167.386 319.998Z" fill="#F98DE2"/>
</svg>
