<?xml version="1.0" encoding="UTF-8"?>
<svg id="Layer_2" data-name="Layer 2" xmlns="http://www.w3.org/2000/svg" viewBox="0 0 79.59 79.59">
  <defs>
    <style>
      .cls-1 {
        fill: #f98de2;
        stroke: #2a2a2a;
        stroke-miterlimit: 10;
        stroke-width: 2px;
      }
    </style>
  </defs>
  <g id="Layer_1-2" data-name="Layer 1">
    <path class="cls-1" d="M72.28,33.49h-17.26l12.21-12.21c2.46-2.46,2.46-6.46,0-8.92-2.46-2.46-6.46-2.46-8.92,0l-12.21,12.21V7.31c0-3.48-2.83-6.31-6.31-6.31s-6.31,2.83-6.31,6.31v17.26l-12.21-12.21c-2.46-2.46-6.46-2.46-8.92,0-2.46,2.46-2.46,6.46,0,8.92l12.21,12.21H7.31c-3.48,0-6.31,2.83-6.31,6.31s2.83,6.31,6.31,6.31h17.26l-12.21,12.21c-2.46,2.46-2.46,6.46,0,8.92,2.46,2.46,6.46,2.46,8.92,0l12.21-12.21v17.26c0,3.48,2.83,6.31,6.31,6.31s6.31-2.83,6.31-6.31v-17.26l12.21,12.21c2.46,2.46,6.46,2.46,8.92,0,2.46-2.46,2.46-6.46,0-8.92l-12.21-12.21h17.26c3.48,0,6.31-2.83,6.31-6.31s-2.83-6.31-6.31-6.31Z"/>
  </g>
</svg>