<?xml version="1.0" encoding="UTF-8"?>
<svg id="Layer_1" data-name="Layer 1" xmlns="http://www.w3.org/2000/svg" viewBox="0 0 600 600">
  <path d="M300.79,347.76c-26.02,0-47.19-21.17-47.19-47.19s21.17-47.19,47.19-47.19,47.19,21.17,47.19,47.19-21.17,47.19-47.19,47.19ZM300.79,275.59c-13.77,0-24.97,11.2-24.97,24.97s11.2,24.97,24.97,24.97,24.97-11.2,24.97-24.97-11.2-24.97-24.97-24.97Z"/>
  <path d="M300.79,383.84c-45.91,0-83.27-37.35-83.27-83.27s37.35-83.27,83.27-83.27,83.27,37.35,83.27,83.27-37.35,83.27-83.27,83.27ZM300.79,239.51c-33.67,0-61.05,27.39-61.05,61.05s27.39,61.05,61.05,61.05,61.05-27.39,61.05-61.05-27.39-61.05-61.05-61.05Z"/>
  <path d="M300.25,419.53c-65.81,0-119.35-53.54-119.35-119.35s53.54-119.35,119.35-119.35,119.35,53.54,119.35,119.35-53.54,119.35-119.35,119.35ZM300.25,203.05c-53.56,0-97.13,43.57-97.13,97.13s43.57,97.13,97.13,97.13,97.13-43.57,97.13-97.13-43.57-97.13-97.13-97.13Z"/>
  <path d="M300.25,455.61c-85.7,0-155.43-69.72-155.43-155.43s69.72-155.43,155.43-155.43,155.43,69.72,155.43,155.43-69.72,155.43-155.43,155.43ZM300.25,166.97c-73.45,0-133.21,59.76-133.21,133.21s59.76,133.21,133.21,133.21,133.21-59.76,133.21-133.21-59.76-133.21-133.21-133.21Z"/>
  <path d="M300.25,491.69c-105.6,0-191.51-85.91-191.51-191.51s85.91-191.51,191.51-191.51,191.51,85.91,191.51,191.51-85.91,191.51-191.51,191.51ZM300.25,130.89c-93.35,0-169.29,75.94-169.29,169.29s75.95,169.29,169.29,169.29,169.29-75.94,169.29-169.29-75.95-169.29-169.29-169.29Z"/>
  <path d="M300.25,527.78c-125.49,0-227.59-102.1-227.59-227.59s102.1-227.59,227.59-227.59,227.59,102.1,227.59,227.59-102.09,227.59-227.59,227.59ZM300.25,94.81c-113.24,0-205.37,92.13-205.37,205.37s92.13,205.37,205.37,205.37,205.37-92.13,205.37-205.37-92.13-205.37-205.37-205.37Z"/>
  <path d="M300.25,563.86c-145.39,0-263.67-118.28-263.67-263.67S154.86,36.52,300.25,36.52s263.67,118.28,263.67,263.67-118.28,263.67-263.67,263.67ZM300.25,58.73c-133.14,0-241.46,108.32-241.46,241.45s108.32,241.45,241.46,241.45,241.45-108.32,241.45-241.45S433.39,58.73,300.25,58.73Z"/>
  <path d="M300.25,599.94C134.97,599.94.5,465.47.5,300.19S134.97.44,300.25.44s299.75,134.47,299.75,299.75-134.47,299.75-299.75,299.75ZM300.25,22.65C147.22,22.65,22.72,147.15,22.72,300.19s124.5,277.53,277.53,277.53,277.53-124.5,277.53-277.53S453.29,22.65,300.25,22.65Z"/>
</svg>