<?xml version="1.0" encoding="UTF-8"?><svg id="Layer_1" xmlns="http://www.w3.org/2000/svg" xmlns:xlink="http://www.w3.org/1999/xlink" viewBox="0 0 1080 1080"><defs><style>.cls-1{mask:url(#mask);}.cls-2{filter:url(#luminosity-noclip);}.cls-3{fill:url(#_É_πÌÚ_·ÂÁ_Ì_Á_Ë_218);}.cls-3,.cls-4,.cls-5,.cls-6,.cls-7,.cls-8,.cls-9,.cls-10,.cls-11,.cls-12,.cls-13,.cls-14,.cls-15,.cls-16{mix-blend-mode:multiply;}.cls-4{fill:url(#_É_πÌÚ_·ÂÁ_Ì_Á_Ë_5-8);}.cls-5{fill:url(#_É_πÌÚ_·ÂÁ_Ì_Á_Ë_5-7);}.cls-6{fill:url(#_É_πÌÚ_·ÂÁ_Ì_Á_Ë_5-6);}.cls-7{fill:url(#_É_πÌÚ_·ÂÁ_Ì_Á_Ë_5-5);}.cls-8{fill:url(#_É_πÌÚ_·ÂÁ_Ì_Á_Ë_5-2);}.cls-9{fill:url(#_É_πÌÚ_·ÂÁ_Ì_Á_Ë_5-3);}.cls-10{fill:url(#_É_πÌÚ_·ÂÁ_Ì_Á_Ë_5-4);}.cls-11{fill:url(#_É_πÌÚ_·ÂÁ_Ì_Á_Ë_119);}.cls-17{filter:url(#luminosity-noclip-25);}.cls-18{filter:url(#luminosity-noclip-27);}.cls-19{filter:url(#luminosity-noclip-21);}.cls-20{filter:url(#luminosity-noclip-23);}.cls-21{filter:url(#luminosity-noclip-17);}.cls-22{filter:url(#luminosity-noclip-13);}.cls-23{filter:url(#luminosity-noclip-11);}.cls-24{filter:url(#luminosity-noclip-19);}.cls-25{filter:url(#luminosity-noclip-15);}.cls-26{filter:url(#luminosity-noclip-3);}.cls-27{filter:url(#luminosity-noclip-9);}.cls-28{filter:url(#luminosity-noclip-7);}.cls-29{filter:url(#luminosity-noclip-5);}.cls-30{mask:url(#mask-2);}.cls-31{mask:url(#mask-3);}.cls-32{mask:url(#mask-4);}.cls-33{mask:url(#mask-5);}.cls-34{mask:url(#mask-7);}.cls-35{mask:url(#mask-6);}.cls-36{mask:url(#mask-1);}.cls-37{mask:url(#mask-9);}.cls-38{mask:url(#mask-8);}.cls-12{fill:url(#_É_πÌÚ_·ÂÁ_Ì_Á_Ë_5);}.cls-13{fill:url(#_É_πÌÚ_·ÂÁ_Ì_Á_Ë_2);}.cls-39{fill:url(#_É_πÌÚ_·ÂÁ_Ì_Á_Ë_193-4);}.cls-40{fill:url(#_É_πÌÚ_·ÂÁ_Ì_Á_Ë_193-2);}.cls-41{fill:url(#_É_πÌÚ_·ÂÁ_Ì_Á_Ë_193-3);}.cls-42{fill:url(#_É_πÌÚ_·ÂÁ_Ì_Á_Ë_238-2);}.cls-43{fill:url(#_É_πÌÚ_·ÂÁ_Ì_Á_Ë_238-3);}.cls-44{fill:url(#_É_πÌÚ_·ÂÁ_Ì_Á_Ë_315-5);}.cls-45{fill:url(#_É_πÌÚ_·ÂÁ_Ì_Á_Ë_315-4);}.cls-46{fill:url(#_É_πÌÚ_·ÂÁ_Ì_Á_Ë_315-3);}.cls-47{fill:url(#_É_πÌÚ_·ÂÁ_Ì_Á_Ë_315-2);}.cls-14{fill:url(#_É_πÌÚ_·ÂÁ_Ì_Á_Ë_119-2);}.cls-15{fill:url(#_É_πÌÚ_·ÂÁ_Ì_Á_Ë_119-3);}.cls-16{fill:url(#_É_πÌÚ_·ÂÁ_Ì_Á_Ë_119-4);}.cls-48{fill:#975500;}.cls-49{fill:url(#_É_πÌÚ_·ÂÁ_Ì_Á_Ë_315);}.cls-50{fill:url(#_É_πÌÚ_·ÂÁ_Ì_Á_Ë_193);}.cls-51{fill:url(#_É_πÌÚ_·ÂÁ_Ì_Á_Ë_240);}.cls-52{fill:url(#_É_πÌÚ_·ÂÁ_Ì_Á_Ë_237);}.cls-53{fill:url(#_É_πÌÚ_·ÂÁ_Ì_Á_Ë_238);}.cls-54{fill:url(#_É_πÌÚ_·ÂÁ_Ì_Á_Ë_63);}.cls-55{fill:url(#_É_πÌÚ_·ÂÁ_Ì_Á_Ë_63-6);}.cls-56{fill:url(#_É_πÌÚ_·ÂÁ_Ì_Á_Ë_63-5);}.cls-57{fill:url(#_É_πÌÚ_·ÂÁ_Ì_Á_Ë_63-4);}.cls-58{fill:url(#_É_πÌÚ_·ÂÁ_Ì_Á_Ë_63-3);}.cls-59{fill:url(#_É_πÌÚ_·ÂÁ_Ì_Á_Ë_63-2);}.cls-60{mask:url(#mask-10);}.cls-61{mask:url(#mask-14);}.cls-62{mask:url(#mask-18);}.cls-63{mask:url(#mask-11);}.cls-64{mask:url(#mask-16);}.cls-65{mask:url(#mask-13);}.cls-66{mask:url(#mask-19);}.cls-67{mask:url(#mask-12);}.cls-68{mask:url(#mask-17);}.cls-69{mask:url(#mask-15);}.cls-70{mask:url(#mask-22);}.cls-71{mask:url(#mask-21);}.cls-72{mask:url(#mask-20);}.cls-73{mask:url(#mask-25);}.cls-74{mask:url(#mask-24);}.cls-75{mask:url(#mask-23);}.cls-76{mask:url(#mask-26);}.cls-77{mask:url(#mask-27);}</style><linearGradient id="_É_πÌÚ_·ÂÁ_Ì_Á_Ë_63" x1="948.38" y1="-3.11" x2="824.72" y2="286.59" gradientTransform="translate(0 1082) scale(1 -1)" gradientUnits="userSpaceOnUse"><stop offset="0" stop-color="#ffcb4b"/><stop offset="1" stop-color="#ffd748"/></linearGradient><linearGradient id="_É_πÌÚ_·ÂÁ_Ì_Á_Ë_63-2" x1="972.95" y1="198.36" x2="713.6" y2="507.73" xlink:href="#_É_πÌÚ_·ÂÁ_Ì_Á_Ë_63"/><linearGradient id="_É_πÌÚ_·ÂÁ_Ì_Á_Ë_63-3" x1="279.72" y1="404.32" x2="432.55" y2="291.78" xlink:href="#_É_πÌÚ_·ÂÁ_Ì_Á_Ë_63"/><linearGradient id="_É_πÌÚ_·ÂÁ_Ì_Á_Ë_63-4" x1="224.05" y1="702.19" x2="492.2" y2="421.53" xlink:href="#_É_πÌÚ_·ÂÁ_Ì_Á_Ë_63"/><filter id="luminosity-noclip" x="231.59" y="434.21" width="279.24" height="336.6" color-interpolation-filters="sRGB" filterUnits="userSpaceOnUse"><feFlood flood-color="#fff" result="bg"/><feBlend in="SourceGraphic" in2="bg"/></filter><filter id="luminosity-noclip-2" x="231.59" y="-8732" width="279.24" height="32766" color-interpolation-filters="sRGB" filterUnits="userSpaceOnUse"><feFlood flood-color="#fff" result="bg"/><feBlend in="SourceGraphic" in2="bg"/></filter><mask id="mask-1" x="231.59" y="-8732" width="279.24" height="32766" maskUnits="userSpaceOnUse"/><linearGradient id="_É_πÌÚ_·ÂÁ_Ì_Á_Ë_5" x1="429.94" y1="535.54" x2="341.3" y2="452.03" gradientTransform="translate(0 1082) scale(1 -1)" gradientUnits="userSpaceOnUse"><stop offset="0" stop-color="#000"/><stop offset="1" stop-color="#fff"/></linearGradient><mask id="mask" x="231.59" y="434.21" width="279.24" height="336.6" maskUnits="userSpaceOnUse"><g class="cls-2"><g class="cls-36"><path class="cls-12" d="M400.69,654.8c33.36,33.14,106.39,101.05,107.16,116,10.53-16.43-8.71-65.3-29.07-82.44-117.69-99.08-231.38-258.83-245.84-254.06-6.18,23.24,9.48,55.12,34.34,83,41.01,45.79,88.2,92.62,133.42,137.49Z"/></g></g></mask><linearGradient id="_É_πÌÚ_·ÂÁ_Ì_Á_Ë_315" x1="429.94" y1="535.54" x2="341.3" y2="452.03" gradientTransform="translate(0 1082) scale(1 -1)" gradientUnits="userSpaceOnUse"><stop offset="0" stop-color="#ffbc47"/><stop offset="1" stop-color="#ffa754"/></linearGradient><linearGradient id="_É_πÌÚ_·ÂÁ_Ì_Á_Ë_63-5" x1="513.71" y1="834.62" x2="669.32" y2="590.09" xlink:href="#_É_πÌÚ_·ÂÁ_Ì_Á_Ë_63"/><linearGradient id="_É_πÌÚ_·ÂÁ_Ì_Á_Ë_63-6" x1="353.11" y1="794.02" x2="564.3" y2="508.73" xlink:href="#_É_πÌÚ_·ÂÁ_Ì_Á_Ë_63"/><filter id="luminosity-noclip-3" x="444.81" y="199.14" width="210.69" height="336.43" color-interpolation-filters="sRGB" filterUnits="userSpaceOnUse"><feFlood flood-color="#fff" result="bg"/><feBlend in="SourceGraphic" in2="bg"/></filter><filter id="luminosity-noclip-4" x="444.81" y="-8732" width="210.69" height="32766" color-interpolation-filters="sRGB" filterUnits="userSpaceOnUse"><feFlood flood-color="#fff" result="bg"/><feBlend in="SourceGraphic" in2="bg"/></filter><mask id="mask-3" x="444.81" y="-8732" width="210.69" height="32766" maskUnits="userSpaceOnUse"/><linearGradient id="_É_πÌÚ_·ÂÁ_Ì_Á_Ë_5-2" x1="604.24" y1="759.58" x2="470.86" y2="639.17" xlink:href="#_É_πÌÚ_·ÂÁ_Ì_Á_Ë_5"/><mask id="mask-2" x="444.81" y="199.14" width="210.69" height="336.43" maskUnits="userSpaceOnUse"><g class="cls-26"><g class="cls-31"><path class="cls-8" d="M623.43,496.87c12.92,14.25,24.51,32.72,20.86,38.69,42.97-34.55-47.89-136.09-99.36-197.04-39.82-47.19-50.7-107.23-79.21-139.39-.7.42-1.33.91-2.04,1.33-25,17.63-32.44,52.81,23.88,127.59,35.46,47.19,65.02,90.66,135.88,168.81Z"/></g></g></mask><linearGradient id="_É_πÌÚ_·ÂÁ_Ì_Á_Ë_315-2" x1="604.24" y1="759.58" x2="470.86" y2="639.17" xlink:href="#_É_πÌÚ_·ÂÁ_Ì_Á_Ë_315"/><filter id="luminosity-noclip-5" x="276.89" y="253.84" width="296.03" height="388.46" color-interpolation-filters="sRGB" filterUnits="userSpaceOnUse"><feFlood flood-color="#fff" result="bg"/><feBlend in="SourceGraphic" in2="bg"/></filter><filter id="luminosity-noclip-6" x="276.89" y="-8732" width="296.03" height="32766" color-interpolation-filters="sRGB" filterUnits="userSpaceOnUse"><feFlood flood-color="#fff" result="bg"/><feBlend in="SourceGraphic" in2="bg"/></filter><mask id="mask-5" x="276.89" y="-8732" width="296.03" height="32766" maskUnits="userSpaceOnUse"/><linearGradient id="_É_πÌÚ_·ÂÁ_Ì_Á_Ë_5-3" x1="481.54" y1="673.81" x2="298.14" y2="539.73" xlink:href="#_É_πÌÚ_·ÂÁ_Ì_Á_Ë_5"/><mask id="mask-4" x="276.89" y="253.84" width="296.03" height="388.46" maskUnits="userSpaceOnUse"><g class="cls-29"><g class="cls-33"><path class="cls-9" d="M446.97,501.51c12.99,12.99,123.17,134.33,120.43,140.79,34.05-45.85-97.96-180.6-161.86-248.72-55.4-59.06-64.88-110.74-118.95-139.74-20.08,24.3-4.14,54.07,4.77,67.06,10.18,14.82,142.69,167.69,155.61,180.61Z"/></g></g></mask><linearGradient id="_É_πÌÚ_·ÂÁ_Ì_Á_Ë_315-3" x1="481.54" y1="673.81" x2="298.14" y2="539.73" xlink:href="#_É_πÌÚ_·ÂÁ_Ì_Á_Ë_315"/><filter id="luminosity-noclip-7" x="540.85" y="640.55" width="24.08" height="7.52" color-interpolation-filters="sRGB" filterUnits="userSpaceOnUse"><feFlood flood-color="#fff" result="bg"/><feBlend in="SourceGraphic" in2="bg"/></filter><filter id="luminosity-noclip-8" x="540.85" y="-8732" width="24.08" height="32766" color-interpolation-filters="sRGB" filterUnits="userSpaceOnUse"><feFlood flood-color="#fff" result="bg"/><feBlend in="SourceGraphic" in2="bg"/></filter><mask id="mask-7" x="540.85" y="-8732" width="24.08" height="32766" maskUnits="userSpaceOnUse"/><linearGradient id="_É_πÌÚ_·ÂÁ_Ì_Á_Ë_5-4" x1="618.18" y1="486.89" x2="434.78" y2="352.82" xlink:href="#_É_πÌÚ_·ÂÁ_Ì_Á_Ë_5"/><mask id="mask-6" x="540.85" y="640.55" width="24.08" height="7.52" maskUnits="userSpaceOnUse"><g class="cls-28"><g class="cls-34"><path class="cls-10" d="M564.93,645.05c-3.86,2.39-11.8,2.6-24.08-4.49,9.13,7.37,17.55,10.18,24.08,4.49Z"/></g></g></mask><linearGradient id="_É_πÌÚ_·ÂÁ_Ì_Á_Ë_315-4" x1="618.18" y1="486.89" x2="434.78" y2="352.82" xlink:href="#_É_πÌÚ_·ÂÁ_Ì_Á_Ë_315"/><filter id="luminosity-noclip-9" x="778.83" y="325.54" width="242.31" height="224.49" color-interpolation-filters="sRGB" filterUnits="userSpaceOnUse"><feFlood flood-color="#fff" result="bg"/><feBlend in="SourceGraphic" in2="bg"/></filter><filter id="luminosity-noclip-10" x="778.83" y="-8732" width="242.31" height="32766" color-interpolation-filters="sRGB" filterUnits="userSpaceOnUse"><feFlood flood-color="#fff" result="bg"/><feBlend in="SourceGraphic" in2="bg"/></filter><mask id="mask-9" x="778.83" y="-8732" width="242.31" height="32766" maskUnits="userSpaceOnUse"/><radialGradient id="_É_πÌÚ_·ÂÁ_Ì_Á_Ë_2" cx="-1757.19" cy="2872.25" fx="-1757.19" fy="2872.25" r="16.11" gradientTransform="translate(24876.32 39635.6) scale(13.67 -13.67)" gradientUnits="userSpaceOnUse"><stop offset="0" stop-color="#000"/><stop offset="1" stop-color="#fff"/></radialGradient><mask id="mask-8" x="778.83" y="325.54" width="242.31" height="224.49" maskUnits="userSpaceOnUse"><g class="cls-27"><g class="cls-37"><path class="cls-13" d="M991.17,339.44c28.3-5.06,33.28-1.83,28.23-7.02-13.76-5.13-28.51-6.88-36.09-6.88-29.63,0-105.61,37.99-105.61,137.98,0,38.9-11.09,74.08-50.98,74.08-15.73,0-32.09-8.5-47.89-21.42,69.94,77.45,124.78,4.49,133.14-45.5,8.36-50-3.79-116.36,79.21-131.24Z"/></g></g></mask><radialGradient id="_É_πÌÚ_·ÂÁ_Ì_Á_Ë_237" cx="-1757.19" cy="2872.25" fx="-1757.19" fy="2872.25" r="16.11" gradientTransform="translate(24876.32 39635.6) scale(13.67 -13.67)" gradientUnits="userSpaceOnUse"><stop offset="0" stop-color="#ffbc47"/><stop offset="1" stop-color="#ffa754"/></radialGradient><filter id="luminosity-noclip-11" x="444.82" y="208.06" width="200.18" height="328.21" color-interpolation-filters="sRGB" filterUnits="userSpaceOnUse"><feFlood flood-color="#fff" result="bg"/><feBlend in="SourceGraphic" in2="bg"/></filter><filter id="luminosity-noclip-12" x="444.82" y="-8732" width="200.18" height="32766" color-interpolation-filters="sRGB" filterUnits="userSpaceOnUse"><feFlood flood-color="#fff" result="bg"/><feBlend in="SourceGraphic" in2="bg"/></filter><mask id="mask-11" x="444.82" y="-8732" width="200.18" height="32766" maskUnits="userSpaceOnUse"/><linearGradient id="_É_πÌÚ_·ÂÁ_Ì_Á_Ë_119" x1="628.65" y1="783.24" x2="514.72" y2="677.64" gradientTransform="translate(0 1082) scale(1 -1)" gradientUnits="userSpaceOnUse"><stop offset=".31" stop-color="#000"/><stop offset="1" stop-color="#fff"/></linearGradient><mask id="mask-10" x="444.82" y="208.06" width="200.18" height="328.21" maskUnits="userSpaceOnUse"><g class="cls-23"><g class="cls-63"><path class="cls-11" d="M455.11,208.06c-17.27,19.59-16.71,54.7,32.37,120.01,35.53,47.19,65.02,90.58,135.95,168.81,13.41,14.82,25.49,34.27,20.36,39.4,11.87-81.03-103.51-160.74-141-221.83-29.7-48.45-35.6-77.03-47.68-106.38Z"/></g></g></mask><linearGradient id="_É_πÌÚ_·ÂÁ_Ì_Á_Ë_193" x1="628.65" y1="783.24" x2="514.72" y2="677.64" gradientTransform="translate(0 1082) scale(1 -1)" gradientUnits="userSpaceOnUse"><stop offset=".31" stop-color="#ffbc47"/><stop offset="1" stop-color="#ff8900"/></linearGradient><filter id="luminosity-noclip-13" x="277.91" y="279.21" width="300.9" height="363.09" color-interpolation-filters="sRGB" filterUnits="userSpaceOnUse"><feFlood flood-color="#fff" result="bg"/><feBlend in="SourceGraphic" in2="bg"/></filter><filter id="luminosity-noclip-14" x="277.91" y="-8732" width="300.9" height="32766" color-interpolation-filters="sRGB" filterUnits="userSpaceOnUse"><feFlood flood-color="#fff" result="bg"/><feBlend in="SourceGraphic" in2="bg"/></filter><mask id="mask-13" x="277.91" y="-8732" width="300.9" height="32766" maskUnits="userSpaceOnUse"/><linearGradient id="_É_πÌÚ_·ÂÁ_Ì_Á_Ë_119-2" x1="541.41" y1="725.99" x2="391.36" y2="590.75" xlink:href="#_É_πÌÚ_·ÂÁ_Ì_Á_Ë_119"/><mask id="mask-12" x="277.91" y="279.21" width="300.9" height="363.09" maskUnits="userSpaceOnUse"><g class="cls-22"><g class="cls-65"><path class="cls-14" d="M446.97,501.51c12.99,12.99,123.17,134.33,120.43,140.79,24.29-17.34,7.72-44.38-29.84-81.95-77.03-77.03-184.26-180.54-227.37-265.78-4.07-8.08-11.66-14.04-20.57-15.17-23.24-3.02-5.97,30.2,1.83,41.5,10.11,14.82,142.62,167.69,155.54,180.61Z"/></g></g></mask><linearGradient id="_É_πÌÚ_·ÂÁ_Ì_Á_Ë_193-2" x1="541.41" y1="725.99" x2="391.36" y2="590.75" xlink:href="#_É_πÌÚ_·ÂÁ_Ì_Á_Ë_193"/><filter id="luminosity-noclip-15" x="231.54" y="434.38" width="282.51" height="338.6" color-interpolation-filters="sRGB" filterUnits="userSpaceOnUse"><feFlood flood-color="#fff" result="bg"/><feBlend in="SourceGraphic" in2="bg"/></filter><filter id="luminosity-noclip-16" x="231.54" y="-8732" width="282.51" height="32766" color-interpolation-filters="sRGB" filterUnits="userSpaceOnUse"><feFlood flood-color="#fff" result="bg"/><feBlend in="SourceGraphic" in2="bg"/></filter><mask id="mask-15" x="231.54" y="-8732" width="282.51" height="32766" maskUnits="userSpaceOnUse"/><linearGradient id="_É_πÌÚ_·ÂÁ_Ì_Á_Ë_119-3" x1="490.71" y1="579.71" x2="305.46" y2="424.1" xlink:href="#_É_πÌÚ_·ÂÁ_Ì_Á_Ë_119"/><mask id="mask-14" x="231.54" y="434.38" width="282.51" height="338.6" maskUnits="userSpaceOnUse"><g class="cls-25"><g class="cls-69"><path class="cls-15" d="M267.27,517.31c41.01,45.85,88.2,92.62,133.35,137.56,35.32,35.11,115.3,109.33,106.52,118.11,49.58-41.71-180.68-192.47-274.28-338.6-6.11,23.1,9.55,55.05,34.41,82.93Z"/></g></g></mask><linearGradient id="_É_πÌÚ_·ÂÁ_Ì_Á_Ë_193-3" x1="490.71" y1="579.71" x2="305.46" y2="424.1" xlink:href="#_É_πÌÚ_·ÂÁ_Ì_Á_Ë_193"/><filter id="luminosity-noclip-17" x="299.36" y="626.36" width="205.6" height="155.93" color-interpolation-filters="sRGB" filterUnits="userSpaceOnUse"><feFlood flood-color="#fff" result="bg"/><feBlend in="SourceGraphic" in2="bg"/></filter><filter id="luminosity-noclip-18" x="299.36" y="-8732" width="205.6" height="32766" color-interpolation-filters="sRGB" filterUnits="userSpaceOnUse"><feFlood flood-color="#fff" result="bg"/><feBlend in="SourceGraphic" in2="bg"/></filter><mask id="mask-17" x="299.36" y="-8732" width="205.6" height="32766" maskUnits="userSpaceOnUse"/><linearGradient id="_É_πÌÚ_·ÂÁ_Ì_Á_Ë_5-5" x1="288.56" y1="466.67" x2="503.92" y2="291.61" xlink:href="#_É_πÌÚ_·ÂÁ_Ì_Á_Ë_5"/><mask id="mask-16" x="299.36" y="626.36" width="205.6" height="155.93" maskUnits="userSpaceOnUse"><g class="cls-21"><g class="cls-68"><path class="cls-7" d="M497.04,781.27c4.7-1.83,7.16-4,7.93-6.39-8.5,6.53-19.66,4.21-41.78-15.38-24.09-21.28-81.03-81.95-118.11-111.65-16.29-12.99-31.67-20.22-45.71-21.49,20.08,12.57,10.74,17.07,55.4,51.33,24.02,18.4,111.65,115.58,142.27,103.57Z"/></g></g></mask><linearGradient id="_É_πÌÚ_·ÂÁ_Ì_Á_Ë_238" x1="288.56" y1="466.67" x2="503.92" y2="291.61" gradientTransform="translate(0 1082) scale(1 -1)" gradientUnits="userSpaceOnUse"><stop offset="0" stop-color="#ffbc47"/><stop offset="1" stop-color="#ffbc47"/></linearGradient><filter id="luminosity-noclip-19" x="264.53" y="405.2" width="298.65" height="243.77" color-interpolation-filters="sRGB" filterUnits="userSpaceOnUse"><feFlood flood-color="#fff" result="bg"/><feBlend in="SourceGraphic" in2="bg"/></filter><filter id="luminosity-noclip-20" x="264.53" y="-8732" width="298.65" height="32766" color-interpolation-filters="sRGB" filterUnits="userSpaceOnUse"><feFlood flood-color="#fff" result="bg"/><feBlend in="SourceGraphic" in2="bg"/></filter><mask id="mask-19" x="264.53" y="-8732" width="298.65" height="32766" maskUnits="userSpaceOnUse"/><linearGradient id="_É_πÌÚ_·ÂÁ_Ì_Á_Ë_5-6" x1="329.81" y1="683.69" x2="497.93" y2="428.04" xlink:href="#_É_πÌÚ_·ÂÁ_Ì_Á_Ë_5"/><mask id="mask-18" x="264.53" y="405.2" width="298.65" height="243.77" maskUnits="userSpaceOnUse"><g class="cls-24"><g class="cls-66"><path class="cls-6" d="M438.68,558.95c32.51,39.6,95.99,104.98,124.5,86.93-7.86,2.67-25.77-1.68-54.98-33.49-28.72-31.25-105.61-121.06-150.97-161.79-36.73-33-66.85-50.21-92.69-44.24,75.21,24.72,143.32,115.16,174.15,152.59Z"/></g></g></mask><linearGradient id="_É_πÌÚ_·ÂÁ_Ì_Á_Ë_238-2" x1="329.81" y1="683.69" x2="497.93" y2="428.04" xlink:href="#_É_πÌÚ_·ÂÁ_Ì_Á_Ë_238"/><filter id="luminosity-noclip-21" x="357.44" y="237.41" width="284.39" height="302.25" color-interpolation-filters="sRGB" filterUnits="userSpaceOnUse"><feFlood flood-color="#fff" result="bg"/><feBlend in="SourceGraphic" in2="bg"/></filter><filter id="luminosity-noclip-22" x="357.44" y="-8732" width="284.39" height="32766" color-interpolation-filters="sRGB" filterUnits="userSpaceOnUse"><feFlood flood-color="#fff" result="bg"/><feBlend in="SourceGraphic" in2="bg"/></filter><mask id="mask-21" x="357.44" y="-8732" width="284.39" height="32766" maskUnits="userSpaceOnUse"/><linearGradient id="_É_πÌÚ_·ÂÁ_Ì_Á_Ë_5-7" x1="461.47" y1="665.41" x2="508.71" y2="701.54" xlink:href="#_É_πÌÚ_·ÂÁ_Ì_Á_Ë_5"/><mask id="mask-20" x="357.44" y="237.41" width="284.39" height="302.25" maskUnits="userSpaceOnUse"><g class="cls-19"><g class="cls-71"><path class="cls-5" d="M473.86,388.53c51.89,56.46,128.93,168.46,167.97,148.87-6.39,1.97-20.15-6.53-30.9-17.34-12.01-12.01-118.53-138.26-142.62-165.37-31.32-35.11-68.32-98.03-110.88-117.27,42.91,33.85,74.36,105.4,116.43,151.11Z"/></g></g></mask><linearGradient id="_É_πÌÚ_·ÂÁ_Ì_Á_Ë_315-5" x1="461.47" y1="665.41" x2="508.71" y2="701.54" xlink:href="#_É_πÌÚ_·ÂÁ_Ì_Á_Ë_315"/><filter id="luminosity-noclip-23" x="525.12" y="196.54" width="253.76" height="326.27" color-interpolation-filters="sRGB" filterUnits="userSpaceOnUse"><feFlood flood-color="#fff" result="bg"/><feBlend in="SourceGraphic" in2="bg"/></filter><filter id="luminosity-noclip-24" x="525.12" y="-8732" width="253.76" height="32766" color-interpolation-filters="sRGB" filterUnits="userSpaceOnUse"><feFlood flood-color="#fff" result="bg"/><feBlend in="SourceGraphic" in2="bg"/></filter><mask id="mask-23" x="525.12" y="-8732" width="253.76" height="32766" maskUnits="userSpaceOnUse"/><linearGradient id="_É_πÌÚ_·ÂÁ_Ì_Á_Ë_5-8" x1="694.59" y1="522.69" x2="631.6" y2="822.8" xlink:href="#_É_πÌÚ_·ÂÁ_Ì_Á_Ë_5"/><mask id="mask-22" x="525.12" y="196.54" width="253.76" height="326.27" maskUnits="userSpaceOnUse"><g class="cls-20"><g class="cls-75"><path class="cls-4" d="M778.83,516.26q.07,0,0,0c-24.23-19.8-46.98-50.07-63.27-75.84-26.83-42.62-137.07-179.69-163.89-218.59-8.22-11.87-17.2-20.08-26.54-25.28,12.5,17.98,19.59,43.61,47.89,75.35,45.36,50.91,104.7,142.62,125.06,174.15,20.29,31.39,53.16,97.82,80.75,70.22Z"/></g></g></mask><linearGradient id="_É_πÌÚ_·ÂÁ_Ì_Á_Ë_238-3" x1="694.59" y1="522.69" x2="631.6" y2="822.8" xlink:href="#_É_πÌÚ_·ÂÁ_Ì_Á_Ë_238"/><filter id="luminosity-noclip-25" x="248.78" y="655.58" width="678.63" height="399.9" color-interpolation-filters="sRGB" filterUnits="userSpaceOnUse"><feFlood flood-color="#fff" result="bg"/><feBlend in="SourceGraphic" in2="bg"/></filter><filter id="luminosity-noclip-26" x="248.78" y="-8732" width="678.63" height="32766" color-interpolation-filters="sRGB" filterUnits="userSpaceOnUse"><feFlood flood-color="#fff" result="bg"/><feBlend in="SourceGraphic" in2="bg"/></filter><mask id="mask-25" x="248.78" y="-8732" width="678.63" height="32766" maskUnits="userSpaceOnUse"/><linearGradient id="_É_πÌÚ_·ÂÁ_Ì_Á_Ë_119-4" x1="550.79" y1="234.66" x2="456.32" y2="147.82" xlink:href="#_É_πÌÚ_·ÂÁ_Ì_Á_Ë_119"/><mask id="mask-24" x="248.78" y="655.58" width="678.63" height="399.9" maskUnits="userSpaceOnUse"><g class="cls-17"><g class="cls-73"><path class="cls-16" d="M927.42,968.34c-16.85-41.01-41.5-66.01-77.1-42.55-97.12,63.97-208.84,42.34-348.93-70.85-124.92-101.05-189.53-173.23-250.34-199.35-14.61,33.21,45.5,86.51,59.69,100.69,22.68,22.68,115.79,108.7,144.51,128.78,49.08,34.27,147.25,170.42,276.95,170.42,72.54-.07,142.34-36.51,195.21-87.14Z"/></g></g></mask><linearGradient id="_É_πÌÚ_·ÂÁ_Ì_Á_Ë_193-4" x1="550.79" y1="234.66" x2="456.32" y2="147.82" xlink:href="#_É_πÌÚ_·ÂÁ_Ì_Á_Ë_193"/><filter id="luminosity-noclip-27" x="253.58" y="340.99" width="797.35" height="714.49" color-interpolation-filters="sRGB" filterUnits="userSpaceOnUse"><feFlood flood-color="#fff" result="bg"/><feBlend in="SourceGraphic" in2="bg"/></filter><filter id="luminosity-noclip-28" x="253.58" y="-8732" width="797.35" height="32766" color-interpolation-filters="sRGB" filterUnits="userSpaceOnUse"><feFlood flood-color="#fff" result="bg"/><feBlend in="SourceGraphic" in2="bg"/></filter><mask id="mask-27" x="253.58" y="-8732" width="797.35" height="32766" maskUnits="userSpaceOnUse"/><radialGradient id="_É_πÌÚ_·ÂÁ_Ì_Á_Ë_218" cx="-1869.82" cy="3047.37" fx="-1869.82" fy="3047.37" r="16.11" gradientTransform="translate(-31569.99 128859.61) rotate(48.14) scale(39.62 -35.96)" gradientUnits="userSpaceOnUse"><stop offset=".61" stop-color="#000"/><stop offset="1" stop-color="#fff"/></radialGradient><mask id="mask-26" x="253.58" y="340.99" width="797.35" height="714.49" maskUnits="userSpaceOnUse"><g class="cls-18"><g class="cls-77"><path class="cls-3" d="M989.77,529.32c1.83-81.53,61.16-120.43,61.16-161.15,0-12.01-6.25-20.78-15.1-27.17,10.81,31.74-14.96,59.9-53.44,107.79-41.71,51.89-50.91,132.43-22.26,213.05,28.72,80.61-7.44,191.77-65.8,226.95-58.35,35.18-135.88,189.87-357.84,15.1q-.07-.07-.14-.14c-13.55-12.57-26.96-23.73-40.52-32.16-93.74-58.07-147.18-110.32-187.56-154.2-7.93-8.64-29.28-41.71-54.7-30.83,12.71,28.79,46.91,59.48,57.16,69.73,22.68,22.68,115.79,108.7,144.51,128.78,3.72,2.6,7.79,5.83,12.08,9.55,1.12.98,2.25,1.97,3.37,2.95.28.28.63.56.91.77.7.63,1.48,1.33,2.18,1.97.14.14.35.28.49.49,29.14,26.47,69.24,70.29,118.39,104.49,0,0,.07,0,.07.07,4.28,3.02,8.71,5.97,13.13,8.78.07.07.14.07.21.14,4.42,2.81,8.92,5.55,13.41,8.15.07,0,.07.07.14.07,33.99,19.52,71.69,33,112.42,33,150.06,0,289.03-156.52,289.03-271.4s-33.49-158.42-31.32-254.76Z"/></g></g></mask><radialGradient id="_É_πÌÚ_·ÂÁ_Ì_Á_Ë_240" cx="-1869.82" cy="3047.37" fx="-1869.82" fy="3047.37" r="16.11" gradientTransform="translate(-31569.99 128859.61) rotate(48.14) scale(39.62 -35.96)" gradientUnits="userSpaceOnUse"><stop offset=".61" stop-color="#ffbc47"/><stop offset="1" stop-color="#ff8900"/></radialGradient></defs><path class="cls-48" d="M327.03,888.28c-.77,0-1.61-.14-2.46-.35-84.55-25.77-176.11-118.18-195.99-197.74-1.12-4.49,1.61-8.99,6.04-10.11,4.49-1.12,8.99,1.62,10.11,6.04,18.33,73.38,106.38,161.93,184.68,185.87,4.43,1.33,6.88,5.97,5.55,10.39-1.05,3.58-4.35,5.9-7.94,5.9Z"/><path class="cls-48" d="M367.34,993.12c-.63,0-1.26-.07-1.9-.21-69.94-16.29-151.25-68.53-223.02-143.39-67.13-69.94-110.6-144.37-113.41-194.23-.28-4.57,3.23-8.57,7.87-8.78,4.56-.28,8.57,3.23,8.78,7.86,2.53,45.36,45.22,117.41,108.77,183.63,69.59,72.61,147.88,123.1,214.8,138.68,4.49,1.05,7.3,5.55,6.25,10.04-.91,3.79-4.35,6.39-8.15,6.39Z"/><path class="cls-48" d="M725.81,263.46c-3.72,0-7.09-2.46-8.08-6.18-11.73-44.52-65.02-108.42-113.55-120.92-4.42-1.12-7.16-5.69-5.97-10.18,1.19-4.5,5.69-7.16,10.18-5.97,54.63,14.11,112.35,83,125.48,132.86,1.19,4.42-1.47,8.99-5.97,10.18-.7.14-1.41.21-2.11.21Z"/><path class="cls-48" d="M830.93,278.28c-3.72,0-7.09-2.53-8.08-6.25-31.25-123.03-148.09-219.02-214.8-230.95-4.56-.84-7.51-5.13-6.74-9.69.84-4.57,5.12-7.51,9.69-6.74,72.68,13.06,194.58,112,228.01,243.24,1.12,4.49-1.55,8.99-6.04,10.11-.7.21-1.33.28-2.04.28Z"/><path class="cls-54" d="M623.43,496.88c13.41,14.81,25.49,34.27,20.36,39.39-5.13,5.13-20.85-4.14-32.86-16.22-12.01-12.01-40.73,115.8-43.54,122.26-2.11,4.85-35.53,43.19-53.02,79.63-5.83,12.15-4.99,48.8-7.16,50.98-8.78,8.78-19.94,7.86-44.03-13.41-24.09-21.28-36.58,105.47-7.86,125.48,49.08,34.27,147.25,170.43,276.95,170.43,150.06,0,289.03-156.52,289.03-271.4s-33.71-158.42-31.46-254.69c1.83-81.52,61.16-120.43,61.16-161.15,0-34.27-50.91-42.62-67.62-42.62-29.63,0-105.61,37.99-105.61,137.98,0,38.9-11.09,74.08-50.91,74.08s-84.26-54.63-111.16-97.25"/><path class="cls-59" d="M1050.93,368.16c0-18.61-15.1-29.56-31.53-35.74,19.73,65.37-80.33,68.19-80.33,290.92s-129.7,287.55-183.42,298.72c-53.72,11.1-148.37,14.33-220.42-74.08-22.12-27.18-52.1-56.67-85.46-84.54-14.11,23.52-17.13,105.75,5.55,121.55,49.08,34.27,147.25,170.43,276.95,170.43,150.06,0,289.03-156.52,289.03-271.4s-33.71-158.42-31.46-254.69c1.83-81.53,61.09-120.43,61.09-161.16Z"/><path class="cls-58" d="M463.19,759.5c-24.08-21.28-81.03-81.95-118.11-111.65-37.08-29.63-69.45-29.28-91.71,3.44-22.26,32.72,42.62,90.16,57.44,104.98,22.68,22.68,115.79,108.7,144.51,128.78"/><path class="cls-57" d="M567.4,642.3c-2.81,6.46-21.7,10.96-59.27-29.91-28.72-31.25-105.61-121.06-150.97-161.79-45.36-40.73-80.61-57.44-110.25-36.09-29.63,21.35-12.78,65.73,20.36,102.8,41.01,45.85,88.2,92.62,133.35,137.56,35.32,35.11,115.3,109.33,106.52,118.11"/><g class="cls-1"><path class="cls-49" d="M400.69,654.8c33.36,33.14,106.39,101.05,107.16,116,10.53-16.43-8.71-65.3-29.07-82.44-117.69-99.08-231.38-258.83-245.84-254.06-6.18,23.24,9.48,55.12,34.34,83,41.01,45.79,88.2,92.62,133.42,137.49Z"/></g><path class="cls-56" d="M715.63,440.42c-26.89-42.62-137.14-179.69-163.97-218.59-26.89-38.9-62.99-38.9-87.99-21.28-25,17.62-32.44,52.8,23.88,127.59,35.53,47.19,65.02,90.58,135.95,168.81l82.44-5.76,9.69-50.77Z"/><path class="cls-55" d="M610.93,520.05c-12.01-12.01-118.53-138.26-142.62-165.37-45.15-50.7-102.38-159.33-170.64-110.95-35.88,25.42-16.43,62.29-6.25,77.1,10.18,14.82,142.62,167.69,155.61,180.61,12.99,12.99,123.17,134.33,120.43,140.79"/><g class="cls-30"><path class="cls-47" d="M623.43,496.87c12.92,14.25,24.51,32.72,20.86,38.69,42.97-34.55-47.89-136.09-99.36-197.04-39.82-47.19-50.7-107.23-79.21-139.39-.7.42-1.33.91-2.04,1.33-25,17.63-32.44,52.81,23.88,127.59,35.46,47.19,65.02,90.66,135.88,168.81Z"/></g><g class="cls-32"><path class="cls-46" d="M446.97,501.51c12.99,12.99,123.17,134.33,120.43,140.79,34.05-45.85-97.96-180.6-161.86-248.72-55.4-59.06-64.88-110.74-118.95-139.74-20.08,24.3-4.14,54.07,4.77,67.06,10.18,14.82,142.69,167.69,155.61,180.61Z"/></g><g class="cls-35"><path class="cls-45" d="M564.93,645.05c-3.86,2.39-11.8,2.6-24.08-4.49,9.13,7.37,17.55,10.18,24.08,4.49Z"/></g><g class="cls-38"><path class="cls-52" d="M991.17,339.44c28.3-5.06,33.28-1.83,28.23-7.02-13.76-5.13-28.51-6.88-36.09-6.88-29.63,0-105.61,37.99-105.61,137.98,0,38.9-11.09,74.08-50.98,74.08-15.73,0-32.09-8.5-47.89-21.42,69.94,77.45,124.78,4.49,133.14-45.5,8.36-50-3.79-116.36,79.21-131.24Z"/></g><g class="cls-60"><path class="cls-50" d="M455.11,208.06c-17.27,19.59-16.71,54.7,32.37,120.01,35.53,47.19,65.02,90.58,135.95,168.81,13.41,14.82,25.49,34.27,20.36,39.4,11.87-81.03-103.51-160.74-141-221.83-29.7-48.45-35.6-77.03-47.68-106.38Z"/></g><g class="cls-67"><path class="cls-40" d="M446.97,501.51c12.99,12.99,123.17,134.33,120.43,140.79,24.29-17.34,7.72-44.38-29.84-81.95-77.03-77.03-184.26-180.54-227.37-265.78-4.07-8.08-11.66-14.04-20.57-15.17-23.24-3.02-5.97,30.2,1.83,41.5,10.11,14.82,142.62,167.69,155.54,180.61Z"/></g><g class="cls-61"><path class="cls-41" d="M267.27,517.31c41.01,45.85,88.2,92.62,133.35,137.56,35.32,35.11,115.3,109.33,106.52,118.11,49.58-41.71-180.68-192.47-274.28-338.6-6.11,23.1,9.55,55.05,34.41,82.93Z"/></g><g class="cls-64"><path class="cls-53" d="M497.04,781.27c4.7-1.83,7.16-4,7.93-6.39-8.5,6.53-19.66,4.21-41.78-15.38-24.09-21.28-81.03-81.95-118.11-111.65-16.29-12.99-31.67-20.22-45.71-21.49,20.08,12.57,10.74,17.07,55.4,51.33,24.02,18.4,111.65,115.58,142.27,103.57Z"/></g><g class="cls-62"><path class="cls-42" d="M438.68,558.95c32.51,39.6,95.99,104.98,124.5,86.93-7.86,2.67-25.77-1.68-54.98-33.49-28.72-31.25-105.61-121.06-150.97-161.79-36.73-33-66.85-50.21-92.69-44.24,75.21,24.72,143.32,115.16,174.15,152.59Z"/></g><g class="cls-72"><path class="cls-44" d="M473.86,388.53c51.89,56.46,128.93,168.46,167.97,148.87-6.39,1.97-20.15-6.53-30.9-17.34-12.01-12.01-118.53-138.26-142.62-165.37-31.32-35.11-68.32-98.03-110.88-117.27,42.91,33.85,74.36,105.4,116.43,151.11Z"/></g><g class="cls-70"><path class="cls-43" d="M778.83,516.26q.07,0,0,0c-24.23-19.8-46.98-50.07-63.27-75.84-26.83-42.62-137.07-179.69-163.89-218.59-8.22-11.87-17.2-20.08-26.54-25.28,12.5,17.98,19.59,43.61,47.89,75.35,45.36,50.91,104.7,142.62,125.06,174.15,20.29,31.39,53.16,97.82,80.75,70.22Z"/></g><g class="cls-74"><path class="cls-39" d="M927.42,968.34c-16.85-41.01-41.5-66.01-77.1-42.55-97.12,63.97-208.84,42.34-348.93-70.85-124.92-101.05-189.53-173.23-250.34-199.35-14.61,33.21,45.5,86.51,59.69,100.69,22.68,22.68,115.79,108.7,144.51,128.78,49.08,34.27,147.25,170.42,276.95,170.42,72.54-.07,142.34-36.51,195.21-87.14Z"/></g><g class="cls-76"><path class="cls-51" d="M989.77,529.32c1.83-81.53,61.16-120.43,61.16-161.15,0-12.01-6.25-20.78-15.1-27.17,10.81,31.74-14.96,59.9-53.44,107.79-41.71,51.89-50.91,132.43-22.26,213.05,28.72,80.61-7.44,191.77-65.8,226.95-58.35,35.18-135.88,189.87-357.84,15.1q-.07-.07-.14-.14c-13.55-12.57-26.96-23.73-40.52-32.16-93.74-58.07-147.18-110.32-187.56-154.2-7.93-8.64-29.28-41.71-54.7-30.83,12.71,28.79,46.91,59.48,57.16,69.73,22.68,22.68,115.79,108.7,144.51,128.78,3.72,2.6,7.79,5.83,12.08,9.55,1.12.98,2.25,1.97,3.37,2.95.28.28.63.56.91.77.7.63,1.48,1.33,2.18,1.97.14.14.35.28.49.49,29.14,26.47,69.24,70.29,118.39,104.49,0,0,.07,0,.07.07,4.28,3.02,8.71,5.97,13.13,8.78.07.07.14.07.21.14,4.42,2.81,8.92,5.55,13.41,8.15.07,0,.07.07.14.07,33.99,19.52,71.69,33,112.42,33,150.06,0,289.03-156.52,289.03-271.4s-33.49-158.42-31.32-254.76Z"/></g></svg>